<svg width="16" height="16" viewBox="0 0 16 16" fill="none" xmlns="http://www.w3.org/2000/svg">
<path d="M5.80667 11.794C5.62 11.7207 5.5 11.534 5.5 11.334V7.33398C5.5 7.06065 5.72667 6.83398 6 6.83398C6.27333 6.83398 6.5 7.06065 6.5 7.33398V10.1273L6.98 9.64732C7.17333 9.45398 7.49333 9.45398 7.68667 9.64732C7.88 9.84065 7.88 10.1607 7.68667 10.354L6.35333 11.6873C6.26 11.7807 6.12667 11.834 6 11.834C5.93333 11.834 5.87333 11.8207 5.80667 11.794Z" fill="#047857"/>
<path d="M5.6463 11.687L4.31297 10.3536C4.11964 10.1603 4.11964 9.84029 4.31297 9.64695C4.5063 9.45362 4.8263 9.45362 5.01964 9.64695L6.35297 10.9803C6.5463 11.1736 6.5463 11.4936 6.35297 11.687C6.25297 11.787 6.1263 11.8336 5.99964 11.8336C5.87297 11.8336 5.7463 11.787 5.6463 11.687Z" fill="#047857"/>
<path d="M6.00004 15.1673C2.38004 15.1673 0.833374 13.6206 0.833374 10.0006V6.00065C0.833374 2.38065 2.38004 0.833984 6.00004 0.833984H9.33337C9.60671 0.833984 9.83337 1.06065 9.83337 1.33398C9.83337 1.60732 9.60671 1.83398 9.33337 1.83398H6.00004C2.92671 1.83398 1.83337 2.92732 1.83337 6.00065V10.0006C1.83337 13.074 2.92671 14.1673 6.00004 14.1673H10C13.0734 14.1673 14.1667 13.074 14.1667 10.0006V6.66732C14.1667 6.39398 14.3934 6.16732 14.6667 6.16732C14.94 6.16732 15.1667 6.39398 15.1667 6.66732V10.0006C15.1667 13.6206 13.62 15.1673 10 15.1673H6.00004Z" fill="#047857"/>
<path fill-rule="evenodd" clip-rule="evenodd" d="M12 7.16633C9.72004 7.16633 8.83337 6.27967 8.83337 3.99967V1.333C8.83337 1.133 8.95337 0.946334 9.14004 0.873C9.32671 0.793 9.54004 0.839667 9.68671 0.979667L15.02 6.313C15.16 6.453 15.2067 6.673 15.1267 6.85967C15.0467 7.04633 14.8667 7.16633 14.6667 7.16633H12ZM9.83337 3.99967C9.83337 5.71967 10.28 6.16633 12 6.16633H13.46L9.83337 2.53967V3.99967Z" fill="#047857"/>
</svg>
