<svg width="17" height="17" viewBox="0 0 17 17" fill="none" xmlns="http://www.w3.org/2000/svg">
<path d="M11 9.16602C11 9.03341 10.9473 8.90623 10.8536 8.81246C10.7598 8.71869 10.6326 8.66602 10.5 8.66602H6.5C6.36739 8.66602 6.24022 8.71869 6.14645 8.81246C6.05268 8.90623 6 9.03341 6 9.16602C6 9.29862 6.05268 9.4258 6.14645 9.51957C6.24022 9.61334 6.36739 9.66602 6.5 9.66602H10.5C10.6326 9.66602 10.7598 9.61334 10.8536 9.51957C10.9473 9.4258 11 9.29862 11 9.16602Z" fill="#3C40F0"/>
<path d="M11 11.834C11 11.7014 10.9473 11.5742 10.8536 11.4804C10.7598 11.3867 10.6326 11.334 10.5 11.334H6.5C6.36739 11.334 6.24022 11.3867 6.14645 11.4804C6.05268 11.5742 6 11.7014 6 11.834C6 11.9666 6.05268 12.0938 6.14645 12.1875C6.24022 12.2813 6.36739 12.334 6.5 12.334H10.5C10.6326 12.334 10.7598 12.2813 10.8536 12.1875C10.9473 12.0938 11 11.9666 11 11.834Z" fill="#3C40F0"/>
<path fill-rule="evenodd" clip-rule="evenodd" d="M5.16732 2C4.68109 2 4.21477 2.19315 3.87096 2.53697C3.52714 2.88079 3.33398 3.3471 3.33398 3.83333V13.1667C3.33398 13.6529 3.52714 14.1192 3.87096 14.463C4.21477 14.8068 4.68109 15 5.16732 15H11.834C12.3202 15 12.7865 14.8068 13.1303 14.463C13.4742 14.1192 13.6673 13.6529 13.6673 13.1667V5.812C13.6673 5.558 13.5847 5.31133 13.4313 5.10867L11.4327 2.46333C11.3239 2.31941 11.1833 2.20267 11.0218 2.12227C10.8603 2.04188 10.6824 2.00002 10.502 2H5.16732ZM4.33398 3.83333C4.33398 3.37333 4.70732 3 5.16732 3H10.0007V5.93133C10.0007 6.20733 10.2247 6.43133 10.5007 6.43133H12.6673V13.1667C12.6673 13.6267 12.294 14 11.834 14H5.16732C4.70732 14 4.33398 13.6267 4.33398 13.1667V3.83333Z" fill="#3C40F0"/>
</svg>
