<svg width="112" height="38" viewBox="0 0 112 38" fill="none" xmlns="http://www.w3.org/2000/svg">
<path d="M28.7944 22.2417C27.7241 21.046 26.7107 19.913 25.6835 18.7683C24.776 19.4112 23.9174 19.7307 22.9138 19.4112C21.5122 18.9643 20.7536 17.5392 21.179 16.1024C21.5887 14.7126 23.0667 13.9226 24.4741 14.3402C25.8502 14.7498 26.7185 16.3062 26.2089 17.6588C25.9619 18.3135 26.1403 18.633 26.5892 19.0682C27.3066 19.7621 27.9829 20.5148 28.5709 21.3185C28.9943 21.8987 29.3962 22.1633 30.1626 22.1359C32.0385 22.0653 33.8027 23.5904 34.1203 25.4075C34.4829 27.4873 33.3872 29.4239 31.4701 30.0845C29.4883 30.7686 27.285 29.8513 26.4108 27.9773C25.5111 26.0524 26.203 23.7687 28.0142 22.6808C28.2201 22.5573 28.4318 22.4436 28.7944 22.2398V22.2417Z" fill="url(#paint0_linear_1707_99023)"/>
<path d="M25.6735 10.5062C24.5131 10.7355 23.3605 10.9668 22.2059 11.1883C21.5179 11.3216 21.1494 11.5784 21.169 12.4291C21.2003 13.7601 20.0242 14.8049 18.707 14.8323C17.2152 14.8637 16.096 13.9248 15.9117 12.4919C15.7451 11.1922 16.686 9.90439 17.9876 9.6182C19.0461 9.38494 19.9321 9.69857 20.5848 10.5219C20.924 10.9492 21.2062 10.9629 21.6963 10.8414C22.9214 10.5356 24.1642 10.2925 25.4109 10.0985C25.8009 10.0377 25.997 9.92007 26.1695 9.57508C27.0476 7.82854 28.6668 7.00525 30.5799 7.28948C32.2559 7.54038 33.6026 8.97329 33.9083 10.8355C34.2494 12.9153 32.7067 14.9715 30.4897 15.3949C28.4903 15.7752 26.242 14.2443 25.8793 12.241C25.7892 11.7411 25.7559 11.2315 25.6716 10.5042L25.6735 10.5062Z" fill="url(#paint1_linear_1707_99023)"/>
<path d="M20.136 30.7833C20.6064 29.3073 21.0494 27.9763 21.4297 26.6277C21.4709 26.4826 21.1788 26.169 20.9749 26.0416C20.0203 25.4476 19.5067 24.6145 19.5812 23.4894C19.6498 22.4622 20.1654 21.6684 21.12 21.2665C22.1079 20.8509 23.0939 20.9313 23.9309 21.6605C24.7836 22.4034 25.0678 23.3639 24.7464 24.446C24.4347 25.4986 23.7094 26.1513 22.6039 26.269C22.155 26.316 21.9805 26.5101 21.8511 26.906C21.4375 28.1802 20.9671 29.4366 20.5692 30.7167C20.4927 30.9636 20.5692 31.3341 20.7103 31.5635C22.4451 34.3313 20.775 37.8008 17.5171 37.9929C15.6099 38.1047 13.73 36.9403 13.285 34.5214C12.9008 32.4377 14.4043 30.3266 16.4135 29.8777C17.7308 29.5837 18.8501 30.0012 20.134 30.7853L20.136 30.7833Z" fill="url(#paint2_linear_1707_99023)"/>
<path d="M8.43977 27.5384C9.90208 27.2032 11.2958 26.9131 12.666 26.5368C12.8326 26.4917 12.9443 25.9859 12.96 25.686C13.0168 24.5452 13.6657 23.6396 14.7575 23.2691C15.7768 22.9221 16.9196 23.2397 17.6057 24.0591C18.5799 25.2234 18.4251 26.8994 17.2548 27.8501C16.1238 28.7694 14.4694 28.6048 13.5481 27.4365C13.2384 27.0444 12.9737 26.9935 12.4954 27.117C11.3232 27.4188 10.1314 27.6756 8.93374 27.8364C8.40252 27.9069 8.13594 28.0834 7.89679 28.544C6.85004 30.5591 4.46643 31.2961 2.44546 30.269C0.759686 29.4124 -0.0988837 27.4345 0.400969 25.5606C0.875338 23.7807 2.70029 22.4556 4.52524 22.5693C6.40508 22.685 8.01833 24.1355 8.30452 25.984C8.37116 26.4113 8.38292 26.8484 8.44173 27.5365L8.43977 27.5384Z" fill="url(#paint3_linear_1707_99023)"/>
<path d="M14.0082 7.2174C13.5535 8.66991 13.1124 10.0048 12.7459 11.3593C12.7027 11.52 13.0242 11.8611 13.2496 11.9983C14.957 13.0392 15.0393 15.4699 13.3829 16.5323C12.5577 17.0635 11.2404 17.0557 10.472 16.5166C9.55857 15.8756 9.10576 14.7093 9.37627 13.692C9.67814 12.555 10.4936 11.8572 11.6227 11.671C11.8598 11.6318 12.1676 11.3868 12.2519 11.1653C12.74 9.87152 13.1928 8.56406 13.6044 7.24288C13.6789 7.00374 13.5672 6.6411 13.4221 6.40979C11.9853 4.11831 12.9536 1.13096 15.4451 0.237109C17.6464 -0.552853 20.0986 0.701678 20.7513 2.95199C21.4178 5.25523 20.0163 7.55259 17.6856 8.10537C16.382 8.41312 15.302 7.94855 14.0082 7.21936V7.2174Z" fill="url(#paint4_linear_1707_99023)"/>
<path d="M5.30705 15.7636C6.35968 16.8947 7.31822 17.9551 8.32576 18.9686C8.42965 19.0724 8.8511 18.9646 9.06084 18.8431C10.3879 18.0786 11.9953 18.4844 12.7362 19.8016C13.4811 21.1248 13.0067 22.7341 11.662 23.4457C10.6858 23.9632 9.59401 23.8338 8.73348 23.1007C7.95724 22.4381 7.59264 21.2894 7.97684 20.3152C8.21599 19.7095 8.06113 19.3645 7.63381 18.9352C6.87913 18.1766 6.14209 17.3808 5.51483 16.5163C5.11691 15.9675 4.70134 15.8087 4.06232 15.8185C2.26089 15.844 0.73585 14.7051 0.200714 13.0115C-0.452034 10.9396 0.531988 8.79117 2.50395 7.99141C4.50924 7.17792 6.77328 8.04825 7.7181 9.99669C8.63939 11.9001 7.93568 14.1915 6.09505 15.2834C5.90883 15.3931 5.72457 15.5088 5.30509 15.7617L5.30705 15.7636Z" fill="url(#paint5_linear_1707_99023)"/>
<path d="M26.3676 5.13827C26.3715 5.91256 25.8109 6.47513 25.0484 6.46337C24.3427 6.45357 23.8193 5.89099 23.8193 5.14023C23.8193 4.36007 24.3898 3.76025 25.1111 3.78181C25.7874 3.80338 26.3676 4.42672 26.3696 5.13631L26.3676 5.13827Z" fill="url(#paint6_linear_1707_99023)"/>
<path d="M8.42201 32.8672C8.41221 32.1223 8.93558 31.544 9.64126 31.5146C10.343 31.4852 10.9762 32.1282 10.9722 32.8633C10.9683 33.565 10.3646 34.1864 9.68634 34.1884C9.01595 34.1884 8.42985 33.5787 8.42201 32.8672Z" fill="url(#paint7_linear_1707_99023)"/>
<path d="M23.1899 32.8428C23.188 32.1038 23.7466 31.5118 24.4543 31.5059C25.1462 31.5 25.7559 32.1057 25.7696 32.8134C25.7853 33.572 25.1835 34.2051 24.4543 34.1973C23.78 34.1894 23.1919 33.5602 23.1899 32.8428Z" fill="url(#paint8_linear_1707_99023)"/>
<path d="M32.2345 20.2671C31.421 20.2592 30.9898 19.8182 30.9878 18.9929C30.9858 18.1834 31.4426 17.707 32.2208 17.7051C33.0264 17.7031 33.538 18.2206 33.5282 19.0282C33.5184 19.8182 33.0421 20.2749 32.2345 20.2671Z" fill="url(#paint9_linear_1707_99023)"/>
<path d="M10.335 5.14163C10.335 5.91199 9.81557 6.44909 9.07069 6.45301C8.34149 6.45497 7.82008 5.90611 7.824 5.13771C7.82792 4.38107 8.3807 3.78713 9.07265 3.79301C9.77244 3.79889 10.335 4.40068 10.335 5.14163Z" fill="url(#paint10_linear_1707_99023)"/>
<path d="M3.11144 19.0048C3.11144 19.8006 2.68804 20.2319 1.90788 20.2319C1.14536 20.2319 0.678829 19.7732 0.670988 19.0185C0.663148 18.2364 1.16888 17.717 1.92944 17.7287C2.6704 17.7385 3.11144 18.2168 3.11144 19.0068V19.0048Z" fill="url(#paint11_linear_1707_99023)"/>
<path d="M52.5052 29.9031C51.0632 29.9031 49.7958 29.5896 48.7031 28.9626C47.6194 28.3267 46.773 27.4444 46.1639 26.3159C45.5638 25.1784 45.2638 23.8618 45.2638 22.366C45.2638 20.7807 45.5593 19.4058 46.1505 18.2415C46.7506 17.0771 47.5835 16.177 48.6494 15.541C49.7152 14.9051 50.9557 14.5871 52.3709 14.5871C53.8487 14.5871 55.1071 14.932 56.1461 15.6216C57.1851 16.3024 57.9598 17.2741 58.4704 18.537C58.9899 19.7999 59.1959 21.3002 59.0884 23.0378H56.2805V22.0167C56.2626 20.3329 55.9401 19.0879 55.3131 18.2818C54.6951 17.4757 53.7502 17.0726 52.4784 17.0726C51.0722 17.0726 50.0153 17.516 49.3077 18.4027C48.6001 19.2894 48.2463 20.5702 48.2463 22.2451C48.2463 23.8394 48.6001 25.0754 49.3077 25.9532C50.0153 26.822 51.0363 27.2564 52.3709 27.2564C53.2486 27.2564 54.0055 27.0593 54.6414 26.6652C55.2863 26.2622 55.7878 25.6889 56.1461 24.9455L58.9003 25.8188C58.336 27.1175 57.4807 28.1252 56.3342 28.8417C55.1878 29.5493 53.9114 29.9031 52.5052 29.9031ZM47.3328 23.0378V20.8479H57.6911V23.0378H47.3328ZM63.4461 29.5V9.75055H66.2541V29.5H63.4461ZM76.912 29.8896C75.1475 29.8896 73.71 29.5 72.5994 28.7208C71.4887 27.9415 70.808 26.8443 70.5573 25.4292L73.4323 24.9858C73.6115 25.7382 74.0235 26.3338 74.6684 26.7727C75.3222 27.2026 76.1328 27.4176 77.1001 27.4176C77.9779 27.4176 78.663 27.2384 79.1557 26.8802C79.6572 26.5219 79.908 26.0293 79.908 25.4023C79.908 25.0351 79.8184 24.7395 79.6393 24.5156C79.4691 24.2827 79.1064 24.0633 78.5511 23.8573C77.9958 23.6513 77.1494 23.396 76.0119 23.0915C74.7669 22.7691 73.7772 22.4242 73.0427 22.057C72.3172 21.6808 71.7978 21.2464 71.4843 20.7538C71.1797 20.2522 71.0275 19.6477 71.0275 18.9401C71.0275 18.0623 71.2604 17.2965 71.7261 16.6427C72.1918 15.9889 72.8457 15.4828 73.6876 15.1245C74.5385 14.7663 75.5327 14.5871 76.6702 14.5871C77.7808 14.5871 78.7705 14.7618 79.6393 15.1111C80.5081 15.4604 81.2112 15.9575 81.7486 16.6024C82.286 17.2383 82.6084 17.9862 82.7159 18.846L79.8408 19.37C79.7423 18.6714 79.4154 18.1206 78.8601 17.7175C78.3048 17.3145 77.5838 17.095 76.697 17.0592C75.8462 17.0234 75.1565 17.1667 74.6281 17.4891C74.0996 17.8026 73.8354 18.237 73.8354 18.7923C73.8354 19.1147 73.9339 19.3879 74.131 19.6118C74.337 19.8358 74.7311 20.0507 75.3132 20.2567C75.8954 20.4627 76.7553 20.709 77.8928 20.9956C79.1109 21.3091 80.0782 21.6584 80.7947 22.0436C81.5113 22.4198 82.0218 22.8721 82.3263 23.4005C82.6398 23.92 82.7965 24.5514 82.7965 25.2948C82.7965 26.7279 82.2726 27.852 81.2246 28.667C80.1857 29.4821 78.7481 29.8896 76.912 29.8896ZM85.5005 29.5L91.7881 10.1536H95.8321L102.12 29.5H99.2042L93.4138 11.8464H94.1392L88.4159 29.5H85.5005ZM88.7652 25.1336V22.5004H98.8684V25.1336H88.7652Z" fill="white"/>
<path d="M105.873 12.6122V9.8849H108.681V12.6122H105.873ZM105.873 29.5V14.9902H108.681V29.5H105.873Z" fill="#F17630"/>
<defs>
<linearGradient id="paint0_linear_1707_99023" x1="22.2653" y1="15.141" x2="34.2097" y2="28.774" gradientUnits="userSpaceOnUse">
<stop stop-color="#4058A1"/>
<stop offset="1" stop-color="white"/>
</linearGradient>
<linearGradient id="paint1_linear_1707_99023" x1="17.5496" y1="7.70073" x2="21.1736" y2="18.8368" gradientUnits="userSpaceOnUse">
<stop stop-color="#4058A1"/>
<stop offset="1" stop-color="white"/>
</linearGradient>
<linearGradient id="paint2_linear_1707_99023" x1="14.2936" y1="21.9794" x2="27.0078" y2="34.1728" gradientUnits="userSpaceOnUse">
<stop stop-color="#4058A1"/>
<stop offset="1" stop-color="white"/>
</linearGradient>
<linearGradient id="paint3_linear_1707_99023" x1="1.90947" y1="23.026" x2="5.5053" y2="34.0971" gradientUnits="userSpaceOnUse">
<stop stop-color="#4058A1"/>
<stop offset="1" stop-color="white"/>
</linearGradient>
<linearGradient id="paint4_linear_1707_99023" x1="10.3644" y1="0.960421" x2="23.035" y2="13.1215" gradientUnits="userSpaceOnUse">
<stop stop-color="#4058A1"/>
<stop offset="1" stop-color="white"/>
</linearGradient>
<linearGradient id="paint5_linear_1707_99023" x1="1.20064" y1="8.59944" x2="13.141" y2="22.1951" gradientUnits="userSpaceOnUse">
<stop stop-color="#4058A1"/>
<stop offset="1" stop-color="white"/>
</linearGradient>
<linearGradient id="paint6_linear_1707_99023" x1="24.0533" y1="3.93345" x2="25.9842" y2="6.50021" gradientUnits="userSpaceOnUse">
<stop stop-color="#4058A1"/>
<stop offset="1" stop-color="white"/>
</linearGradient>
<linearGradient id="paint7_linear_1707_99023" x1="8.65583" y1="31.6654" x2="10.5797" y2="34.2303" gradientUnits="userSpaceOnUse">
<stop stop-color="#4058A1"/>
<stop offset="1" stop-color="white"/>
</linearGradient>
<linearGradient id="paint8_linear_1707_99023" x1="23.4266" y1="31.6586" x2="25.3596" y2="34.2493" gradientUnits="userSpaceOnUse">
<stop stop-color="#4058A1"/>
<stop offset="1" stop-color="white"/>
</linearGradient>
<linearGradient id="paint9_linear_1707_99023" x1="31.2209" y1="17.8505" x2="33.0423" y2="20.3758" gradientUnits="userSpaceOnUse">
<stop stop-color="#4058A1"/>
<stop offset="1" stop-color="white"/>
</linearGradient>
<linearGradient id="paint10_linear_1707_99023" x1="8.05433" y1="3.94391" x2="9.97294" y2="6.47619" gradientUnits="userSpaceOnUse">
<stop stop-color="#4058A1"/>
<stop offset="1" stop-color="white"/>
</linearGradient>
<linearGradient id="paint11_linear_1707_99023" x1="0.894782" y1="17.8706" x2="2.68386" y2="20.3092" gradientUnits="userSpaceOnUse">
<stop stop-color="#4058A1"/>
<stop offset="1" stop-color="white"/>
</linearGradient>
</defs>
</svg>
