<svg width="22" height="22" viewBox="0 0 22 22" fill="none" xmlns="http://www.w3.org/2000/svg">
<path d="M1.14575 11.0007C1.14575 5.56482 5.56409 1.14648 10.9999 1.14648C16.4358 1.14648 20.8541 5.56482 20.8541 11.0007C20.8541 11.3765 20.5424 11.6882 20.1666 11.6882C19.7908 11.6882 19.4791 11.3765 19.4791 11.0007C19.4791 6.32565 15.6749 2.52148 10.9999 2.52148C6.32492 2.52148 2.52075 6.32565 2.52075 11.0007C2.52075 15.6757 6.32492 19.4798 10.9999 19.4798C11.3758 19.4798 11.6874 19.7915 11.6874 20.1673C11.6874 20.5431 11.3758 20.8548 10.9999 20.8548C5.56409 20.8548 1.14575 16.4365 1.14575 11.0007Z" fill="#CCDCEF"/>
<path d="M7.33355 19.9375C6.95772 19.9375 6.64605 19.6258 6.64605 19.25C6.64605 18.8742 6.93938 18.5717 7.31521 18.5625C5.87605 13.6492 5.87605 8.35083 7.31521 3.4375C6.94855 3.42833 6.64605 3.12583 6.64605 2.75C6.64605 2.37417 6.95772 2.0625 7.33355 2.0625H8.25022C8.47022 2.0625 8.68105 2.1725 8.80939 2.34666C8.93772 2.53 8.97439 2.75916 8.90106 2.96999C7.17772 8.14916 7.17772 13.86 8.90106 19.0392C8.97439 19.25 8.93772 19.4792 8.80939 19.6625C8.68105 19.8458 8.47022 19.9375 8.25022 19.9375H7.33355Z" fill="#CCDCEF"/>
<path d="M14.4012 11.0006C14.4012 8.26891 13.9611 5.56474 13.0995 2.97057C12.9803 2.61307 13.1728 2.21889 13.5303 2.09972C13.8878 1.98056 14.282 2.17309 14.4012 2.53059C15.3087 5.26225 15.7762 8.11308 15.7762 11.0006C15.7762 11.3764 15.4645 11.6881 15.0887 11.6881C14.7128 11.6881 14.4012 11.3764 14.4012 11.0006Z" fill="#CCDCEF"/>
<path d="M3.4375 14.6857C3.42833 15.0524 3.12583 15.3549 2.75 15.3549C2.37417 15.3549 2.0625 15.0432 2.0625 14.6674V13.7507C2.0625 13.5307 2.1725 13.3199 2.34666 13.1916C2.53 13.0632 2.75917 13.0265 2.97001 13.0999C5.56417 13.9615 8.26833 14.4016 11 14.4016C11.3758 14.4016 11.6875 14.7132 11.6875 15.0891C11.6875 15.4649 11.3758 15.7766 11 15.7766C8.43333 15.7766 5.89417 15.4099 3.4375 14.6857Z" fill="#CCDCEF"/>
<path d="M19.0307 8.9003C13.8515 7.17697 8.14069 7.17697 2.96152 8.9003C2.60402 9.01947 2.20986 8.82694 2.09069 8.46944C1.97153 8.11194 2.16403 7.71776 2.52153 7.59859C7.98486 5.77443 13.9982 5.77443 19.4524 7.59859C19.8099 7.71776 20.0024 8.11194 19.8832 8.46944C19.8099 8.7536 19.5349 8.93695 19.2507 8.93695C19.1774 8.93695 19.104 8.9278 19.0307 8.9003Z" fill="#CCDCEF"/>
<path fill-rule="evenodd" clip-rule="evenodd" d="M13.0625 16.6833C13.0625 14.685 14.685 13.0625 16.6833 13.0625C18.6817 13.0625 20.3042 14.685 20.3042 16.6833C20.3042 18.6817 18.6817 20.3042 16.6833 20.3042C14.685 20.3042 13.0625 18.6817 13.0625 16.6833ZM14.4375 16.6833C14.4375 17.9208 15.4458 18.9292 16.6833 18.9292C17.9208 18.9292 18.9292 17.9208 18.9292 16.6833C18.9292 15.4458 17.9208 14.4375 16.6833 14.4375C15.4458 14.4375 14.4375 15.4458 14.4375 16.6833Z" fill="#CCDCEF"/>
<path d="M19.6803 20.6522L18.7636 19.7355C18.4978 19.4697 18.4978 19.0297 18.7636 18.7638C19.0294 18.498 19.4694 18.498 19.7352 18.7638L20.6519 19.6805C20.9177 19.9463 20.9177 20.3864 20.6519 20.6522C20.5144 20.7897 20.3402 20.8539 20.1661 20.8539C19.9919 20.8539 19.8178 20.7897 19.6803 20.6522Z" fill="#CCDCEF"/>
</svg>
