<svg width="22" height="23" viewBox="0 0 22 23" fill="none" xmlns="http://www.w3.org/2000/svg">
<path d="M11.0099 6.14265C10.8164 6.14265 10.6251 6.15252 10.4365 6.17183C10.248 6.19114 10.0621 6.21975 9.87932 6.25732C9.69657 6.29488 9.51705 6.3414 9.34114 6.3963L8.82481 6.58589L8.33321 6.82327L7.86932 7.10554L7.43587 7.42974L7.0359 7.79306L6.67222 8.19268L6.34767 8.62564L6.06504 9.08911L5.82753 9.58014C5.75613 9.74809 5.69263 9.92027 5.63766 10.0961C5.58268 10.2718 5.53617 10.4513 5.49853 10.6338C5.46089 10.8163 5.43228 11.0021 5.4129 11.1905C5.39352 11.3788 5.38379 11.57 5.38379 11.7632C5.38379 11.9565 5.39366 12.1476 5.4129 12.336C5.43203 12.5229 5.46061 12.7087 5.49853 12.8927C5.53617 13.076 5.58268 13.2547 5.63766 13.4305C5.69263 13.6063 5.75606 13.7784 5.82753 13.9464L6.06504 14.4374L6.34767 14.9008L6.67222 15.3339L7.0359 15.7335L7.43587 16.0968L7.86932 16.421L8.33321 16.7033L8.82481 16.9407L9.34114 17.1302L9.87932 17.2692C10.0635 17.3071 10.2495 17.3357 10.4365 17.3548C10.627 17.3742 10.8184 17.3839 11.0099 17.3839C11.2033 17.3839 11.3947 17.374 11.5832 17.3548C11.7702 17.3357 11.9562 17.3071 12.1404 17.2692L12.6786 17.1302L13.195 16.9407L13.6865 16.7033L14.1504 16.421L14.5839 16.0968L14.9839 15.7335L15.3476 15.3339L15.6722 14.9008L15.9548 14.4374L16.1923 13.9464L16.3822 13.4305C16.4371 13.2547 16.4837 13.0753 16.5213 12.8927L16.6069 12.336C16.6262 12.1476 16.6361 11.9564 16.6361 11.7632C16.6361 11.5699 16.6262 11.3788 16.6069 11.1904C16.5878 11.0035 16.5592 10.8177 16.5213 10.6337C16.4837 10.4505 16.4371 10.2718 16.3822 10.096L16.1923 9.58007L15.9548 9.08904L15.6722 8.62557L15.3476 8.19261L14.9839 7.79299L14.5839 7.42967L14.1504 7.10547L13.6865 6.8232L13.195 6.58582L12.6786 6.39623L12.1404 6.25725L11.5832 6.17176C11.3927 6.1523 11.2013 6.14256 11.0099 6.14258V6.14265ZM11.0099 8.08267C11.1378 8.08267 11.264 8.08901 11.3884 8.10155L11.7548 8.15702L12.1089 8.24723L12.4479 8.37036L12.7702 8.52471L13.0732 8.70831L13.3566 8.91954L13.6178 9.15649L13.8549 9.4174L14.0664 9.70045L14.2502 10.0039L14.4045 10.326C14.4509 10.4363 14.4921 10.5492 14.5279 10.6647C14.5637 10.7803 14.5938 10.8983 14.6181 11.0186C14.6424 11.1388 14.6604 11.2611 14.6735 11.3854L14.6924 11.7636C14.6924 11.8914 14.6861 12.0175 14.6735 12.1419C14.661 12.2662 14.6425 12.3885 14.6181 12.5087C14.5936 12.6289 14.5634 12.7469 14.5279 12.8625L14.4045 13.2012L14.2502 13.5233L14.0664 13.8267L13.8549 14.1099L13.6178 14.3708L13.3566 14.6077L13.0732 14.8189L12.7702 15.0025L12.4479 15.1569L12.1089 15.28L11.7548 15.3702L11.3884 15.4256C11.2626 15.4382 11.1362 15.4445 11.0098 15.4445C10.8834 15.4445 10.757 15.4382 10.6312 15.4256L10.2647 15.3702C10.1444 15.3458 10.0263 15.3157 9.91061 15.28L9.57161 15.1569L9.2493 15.0025L8.94624 14.8189L8.66291 14.6077L8.40172 14.3708L8.16455 14.1099L7.95312 13.8267L7.76931 13.5233L7.61496 13.2012L7.49162 12.8625L7.4014 12.5087L7.34594 12.1419C7.33332 12.0162 7.32702 11.8899 7.32705 11.7636C7.32702 11.6373 7.33332 11.5111 7.34594 11.3854C7.35841 11.2611 7.37695 11.1387 7.4014 11.0186C7.42562 10.8992 7.45575 10.7812 7.49169 10.6648L7.61503 10.3261L7.76938 10.004L7.95319 9.70052L8.16462 9.41747L8.40179 9.15656L8.66298 8.91961L8.94631 8.70838L9.24937 8.52478L9.57168 8.37043C9.68261 8.32385 9.79577 8.28275 9.91075 8.24731L10.2648 8.15709C10.3851 8.13271 10.5076 8.1141 10.6313 8.10162C10.7571 8.08902 10.8835 8.08271 11.0099 8.08274L11.0099 8.08267Z" fill="url(#paint0_radial_2060_4236)"/>
<path d="M16.8642 4.54492C16.8196 4.54493 16.7749 4.54719 16.7305 4.55169C16.686 4.55618 16.6418 4.56291 16.598 4.57185C16.5543 4.58077 16.5109 4.5919 16.4683 4.60518C16.4256 4.61847 16.3836 4.6339 16.3425 4.65142C16.3013 4.66895 16.2611 4.68854 16.2219 4.71013C16.1827 4.73166 16.1446 4.75516 16.1077 4.78053C16.0708 4.80593 16.0352 4.83317 16.0011 4.86215C15.9669 4.8911 15.9342 4.92175 15.9031 4.95398C15.872 4.98624 15.8425 5.02004 15.8147 5.05526C15.787 5.09049 15.761 5.12709 15.7368 5.16493C15.7127 5.20274 15.6905 5.24174 15.6702 5.28178C15.65 5.32186 15.6317 5.36293 15.6155 5.40484C15.5993 5.44675 15.5852 5.48944 15.5733 5.53276C15.5613 5.57608 15.5515 5.61997 15.5439 5.66428C15.5363 5.70857 15.531 5.75321 15.5278 5.79805C15.5255 5.82981 15.5244 5.86164 15.5244 5.89348C15.5244 5.93845 15.5266 5.98341 15.5311 6.02816C15.5356 6.07289 15.5423 6.11738 15.5511 6.16144C15.56 6.2055 15.5711 6.24909 15.5843 6.29204C15.5975 6.335 15.6128 6.37727 15.6302 6.41869C15.6476 6.46012 15.6671 6.50065 15.6885 6.54012C15.7099 6.57959 15.7333 6.61796 15.7585 6.65508C15.7837 6.69217 15.8108 6.72797 15.8395 6.76235C15.8683 6.79675 15.8988 6.82968 15.9308 6.86102C15.9629 6.89233 15.9964 6.92202 16.0314 6.94996C16.0664 6.97792 16.1028 7.0041 16.1404 7.0284C16.178 7.05271 16.2168 7.0751 16.2566 7.0955C16.2964 7.11591 16.3372 7.13431 16.3788 7.15062C16.4205 7.16691 16.4629 7.18109 16.5059 7.19312C16.549 7.20512 16.5926 7.21495 16.6366 7.22258C16.6806 7.23023 16.725 7.23566 16.7695 7.23886C16.8011 7.24111 16.8327 7.24224 16.8643 7.24224C16.909 7.24225 16.9536 7.24002 16.9981 7.23554C17.0425 7.23105 17.0867 7.22432 17.1305 7.21539C17.1743 7.20646 17.2176 7.19533 17.2603 7.18205C17.3029 7.16876 17.3449 7.15333 17.3861 7.13582C17.4272 7.1183 17.4674 7.09873 17.5066 7.07718C17.5458 7.05561 17.584 7.03209 17.6208 7.0067C17.6577 6.98132 17.6933 6.95411 17.7275 6.92515C17.7616 6.89618 17.7943 6.86551 17.8254 6.83325C17.8565 6.80099 17.886 6.76719 17.9138 6.73197C17.9416 6.69674 17.9676 6.66014 17.9917 6.6223C18.0158 6.58447 18.038 6.54544 18.0583 6.50538C18.0786 6.4653 18.0968 6.42423 18.1131 6.38232C18.1292 6.34042 18.1433 6.29772 18.1553 6.2544C18.1672 6.21108 18.177 6.16719 18.1846 6.12289C18.1922 6.07859 18.1976 6.03395 18.2007 5.98912C18.203 5.95736 18.2041 5.92553 18.2041 5.89369C18.2041 5.84873 18.2019 5.8038 18.1974 5.75907C18.193 5.71434 18.1863 5.66986 18.1774 5.62579C18.1685 5.58173 18.1575 5.53815 18.1443 5.4952C18.1311 5.45223 18.1157 5.40996 18.0983 5.36854C18.0809 5.32711 18.0615 5.28658 18.04 5.24711C18.0186 5.20764 17.9953 5.16928 17.97 5.13216C17.9448 5.09504 17.9177 5.05921 17.8889 5.02482C17.8602 4.99042 17.8297 4.95748 17.7977 4.92614C17.7657 4.89483 17.7321 4.86514 17.6971 4.8372C17.6621 4.80926 17.6257 4.78311 17.5881 4.75883C17.5505 4.73452 17.5117 4.71213 17.4719 4.69173C17.4321 4.67132 17.3913 4.65292 17.3497 4.63662C17.3081 4.62033 17.2657 4.60614 17.2226 4.59412C17.1796 4.58209 17.136 4.57223 17.0919 4.56459C17.0479 4.55696 17.0036 4.55155 16.959 4.54838C16.9275 4.54612 16.8959 4.54499 16.8642 4.54499V4.54492Z" fill="url(#paint1_radial_2060_4236)"/>
<path d="M9.9426 0.767783C9.3307 0.766796 8.78462 0.769333 8.29409 0.77624L6.97894 0.81148C6.58933 0.828395 6.24511 0.850453 5.93613 0.878998C5.78164 0.893234 5.63589 0.909163 5.49775 0.926712C5.36629 0.943281 5.2352 0.962574 5.10454 0.984577C4.98014 1.00572 4.86209 1.02855 4.7489 1.05336C4.63571 1.07817 4.5276 1.10496 4.42329 1.13371C4.32132 1.16183 4.22014 1.19276 4.11987 1.22646C4.02163 1.25959 3.92577 1.29469 3.83112 1.33218C3.64181 1.40717 3.45716 1.49132 3.267 1.58562C3.12069 1.65822 2.98551 1.73173 2.85709 1.80954C2.72868 1.88735 2.60703 1.96953 2.48792 2.05904C2.36526 2.15166 2.24703 2.25002 2.13362 2.35378C2.01508 2.46176 1.89399 2.58051 1.76819 2.71322C1.6101 2.87906 1.47274 3.0337 1.35081 3.18544C1.28984 3.26127 1.23276 3.33626 1.17898 3.41168C1.1258 3.486 1.07496 3.56196 1.02653 3.63947C0.978607 3.71629 0.933218 3.79452 0.889803 3.87501C0.84571 3.95688 0.804039 4.04004 0.764842 4.12436C0.684637 4.29662 0.609788 4.48212 0.53508 4.68919C0.479656 4.84227 0.430026 4.99739 0.386298 5.15421C0.341684 5.31448 0.302004 5.48215 0.266623 5.66349C0.231243 5.84484 0.200373 6.03985 0.173238 6.25552C0.143998 6.49193 0.120639 6.72902 0.103182 6.96659C0.0834475 7.22778 0.0670963 7.5152 0.0537052 7.83511L0.0219896 8.89878L0.00493354 10.1954L0 11.7626L0.0144483 14.0417L0.059555 15.7685L0.0943014 16.443L0.137717 17.0019C0.151634 17.1525 0.169047 17.3028 0.189942 17.4527C0.208972 17.5857 0.22941 17.7022 0.2514 17.8029C0.296018 18.0078 0.348779 18.2109 0.409556 18.4116C0.467749 18.6038 0.534298 18.7933 0.609013 18.9797C0.682452 19.1622 0.762799 19.3383 0.850193 19.5077C0.937588 19.6771 1.03203 19.8399 1.13352 19.9963C1.23501 20.1527 1.34355 20.3027 1.45942 20.4463C1.57515 20.5898 1.69826 20.7273 1.82824 20.8582C1.95841 20.9892 2.09571 21.114 2.2404 21.2325C2.38681 21.3524 2.53899 21.4651 2.6964 21.5701C2.8425 21.6678 2.98706 21.7573 3.13267 21.8394C3.27828 21.9215 3.42516 21.996 3.57613 22.0637C3.72709 22.1314 3.88186 22.1924 4.04354 22.2472C4.20522 22.3021 4.37367 22.3508 4.5517 22.3941C4.72973 22.4374 4.91819 22.4754 5.11765 22.5085C5.31711 22.5416 5.53031 22.57 5.7581 22.5945C5.98589 22.6189 6.2289 22.6392 6.49003 22.6561C6.75115 22.673 7.03025 22.6865 7.33014 22.6974C7.7934 22.7142 8.49467 22.724 9.30335 22.7277L11.9213 22.7224L14.4004 22.6877L15.3429 22.6612L15.957 22.6296C16.0888 22.6189 16.2178 22.6062 16.3423 22.5913C16.4667 22.5764 16.5895 22.5595 16.709 22.5401C16.8286 22.5208 16.9454 22.4993 17.0602 22.4753C17.1737 22.4517 17.2866 22.4253 17.3988 22.3962C17.5099 22.368 17.6194 22.3359 17.7278 22.3018C17.8362 22.2678 17.9435 22.231 18.0501 22.1915C18.1574 22.1518 18.2636 22.1095 18.3688 22.0646C18.4748 22.0195 18.5806 21.9713 18.6867 21.9201C18.8497 21.8416 18.9809 21.7761 19.0962 21.7122C19.2046 21.6528 19.309 21.5863 19.4087 21.5132C19.5071 21.4407 19.6049 21.3583 19.7177 21.2544C19.8304 21.1505 19.9582 21.0253 20.1164 20.867C20.2555 20.728 20.3728 20.6072 20.4739 20.4974C20.5751 20.3875 20.6603 20.2886 20.735 20.1933C20.8062 20.1029 20.8725 20.0087 20.9337 19.9113C20.9934 19.8161 21.0484 19.7173 21.1044 19.6077C21.1887 19.4428 21.2637 19.2901 21.3309 19.1427C21.3961 19.0007 21.4557 18.8561 21.5095 18.7094C21.5625 18.5638 21.6084 18.4157 21.647 18.2657C21.6867 18.1114 21.721 17.9484 21.7506 17.7697C21.7802 17.5909 21.8052 17.3964 21.8269 17.1792C21.8486 16.962 21.8671 16.7219 21.8833 16.4522L21.9263 15.5468L21.9632 14.4207L21.9896 13.1662L21.9997 11.8544L21.9762 9.27803L21.9447 8.12407L21.9017 7.13327L21.8481 6.36082C21.8287 6.14585 21.8077 5.97656 21.7854 5.8621C21.7607 5.73564 21.7332 5.60975 21.7028 5.48455C21.6732 5.36272 21.6406 5.24162 21.6052 5.12137C21.5706 5.00421 21.5331 4.88795 21.4926 4.7727C21.4525 4.65888 21.4101 4.54745 21.3657 4.43842C21.3213 4.32939 21.2732 4.22289 21.2232 4.11866C21.1731 4.01442 21.1207 3.91271 21.0657 3.81334C21.0106 3.71396 20.9532 3.61705 20.8933 3.52254C20.8333 3.42803 20.7708 3.33591 20.7058 3.24626C20.6411 3.1569 20.5737 3.06958 20.5035 2.98443C20.4337 2.89975 20.3613 2.81729 20.2863 2.73719C20.2114 2.65718 20.134 2.57957 20.0542 2.50447C19.9744 2.42933 19.8921 2.3566 19.8072 2.28626C19.7221 2.21569 19.6347 2.14779 19.5453 2.08265C19.455 2.01684 19.3627 1.9538 19.2685 1.89362C19.173 1.83258 19.0758 1.77439 18.9769 1.71911C18.8762 1.66291 18.774 1.60961 18.6703 1.55927C18.4982 1.47561 18.339 1.40139 18.1828 1.33557C18.0292 1.27023 17.8726 1.21221 17.7135 1.16169C17.5535 1.1113 17.387 1.0681 17.2037 1.03081C17.0205 0.993528 16.8207 0.962447 16.5945 0.936017C16.3683 0.909587 16.1158 0.888232 15.827 0.870472C15.5382 0.852711 15.2133 0.838755 14.8424 0.827478L13.5818 0.799287L11.9864 0.780469L9.9433 0.767923L9.9426 0.767783ZM11.0037 2.70611L13.9499 2.72288L15.0614 2.74431C15.3675 2.75291 15.601 2.76298 15.738 2.77461C15.9163 2.78962 16.0861 2.80844 16.2486 2.831C16.4045 2.85253 16.5597 2.8793 16.7138 2.91127C16.8618 2.94228 17.0029 2.97752 17.1381 3.01727C17.2732 3.05702 17.4022 3.10157 17.526 3.15083C17.6499 3.2001 17.7683 3.2543 17.8822 3.31364C17.9953 3.37254 18.1052 3.43735 18.2114 3.50781C18.3171 3.57794 18.419 3.65349 18.518 3.73489C18.6169 3.8163 18.7128 3.90355 18.8065 3.99687C18.9054 4.09533 18.9966 4.19562 19.0807 4.29908C19.1644 4.4019 19.2419 4.50967 19.3128 4.62181C19.3844 4.73554 19.4489 4.85358 19.506 4.97526C19.5644 5.09931 19.6168 5.2304 19.6639 5.36973C19.711 5.50907 19.7529 5.65715 19.7901 5.81538C19.829 5.98313 19.8615 6.15228 19.8877 6.32248C19.9159 6.5029 19.94 6.69531 19.9605 6.90132C19.9809 7.10733 19.9978 7.32702 20.0118 7.56207C20.0229 7.7506 20.0326 7.99939 20.0409 8.29322L20.0615 9.29509L20.0773 11.7492L20.0594 14.2009L20.0378 15.1999L20.0081 15.9265C19.9875 16.2667 19.9658 16.5527 19.9399 16.8016C19.9269 16.9261 19.9128 17.0413 19.8971 17.1493C19.8825 17.2514 19.8651 17.3531 19.845 17.4542C19.8267 17.5465 19.8054 17.6382 19.7812 17.7291C19.7581 17.8158 19.732 17.9018 19.7031 17.9868C19.6739 18.0722 19.6422 18.1568 19.608 18.2403C19.5718 18.3284 19.5336 18.4158 19.4935 18.5022C19.4577 18.5794 19.4202 18.6545 19.3804 18.7276C19.3411 18.7999 19.2994 18.8709 19.2553 18.9404C19.2116 19.0093 19.1657 19.0761 19.1178 19.1409C19.0702 19.2055 19.0202 19.2683 18.968 19.3292C18.9159 19.3899 18.8617 19.4487 18.8054 19.5054C18.749 19.5622 18.6905 19.6169 18.6299 19.6698C18.5693 19.7227 18.5064 19.7734 18.4414 19.8223C18.3763 19.8712 18.309 19.9182 18.2394 19.9631C18.1699 20.0081 18.0981 20.0512 18.024 20.0924C17.95 20.1335 17.8736 20.1729 17.795 20.2103C17.715 20.2483 17.634 20.2839 17.5519 20.317C17.4671 20.3512 17.3813 20.3831 17.2947 20.4125C17.1185 20.4726 16.9326 20.5253 16.737 20.5707C16.533 20.6178 16.3273 20.6563 16.1201 20.6862C16.0405 20.6978 15.8574 20.7087 15.5953 20.7189L14.5961 20.7467L11.7636 20.7834L8.79879 20.7881L7.63447 20.7757L6.87844 20.7521L6.32095 20.713C6.14785 20.6984 5.98687 20.6822 5.83605 20.6638C5.68522 20.6454 5.54476 20.6249 5.41261 20.6017C5.28738 20.5801 5.16291 20.5542 5.03942 20.5242C4.92682 20.4968 4.81537 20.4649 4.70535 20.4285C4.59927 20.3933 4.49785 20.3545 4.39918 20.3119C4.30051 20.2692 4.20466 20.2225 4.10972 20.1715C4.01479 20.1204 3.92084 20.065 3.82583 20.0046C3.75416 19.9591 3.68487 19.913 3.6182 19.8642C3.55153 19.8153 3.48711 19.7666 3.42509 19.7156C3.36307 19.6646 3.30351 19.612 3.24607 19.5579C3.18901 19.504 3.13391 19.4481 3.08087 19.3903C3.02801 19.3326 2.97747 19.2733 2.92898 19.2118C2.88031 19.1501 2.83392 19.0866 2.78993 19.0215C2.74528 18.9554 2.70304 18.8877 2.66328 18.8185C2.6231 18.7488 2.5849 18.6766 2.54861 18.6022C2.5117 18.5263 2.47727 18.4493 2.44535 18.3712C2.41293 18.2917 2.3822 18.2097 2.35331 18.125C2.29551 17.9555 2.24477 17.775 2.20065 17.5826C2.15653 17.3902 2.11889 17.1858 2.08704 16.968C2.05518 16.7503 2.02952 16.5194 2.00909 16.274C1.994 16.0932 1.98202 15.8116 1.97286 15.4564L1.95369 14.1931L1.96074 10.9725L2.0162 7.89508L2.05849 6.81083L2.08245 6.45244C2.09077 6.35673 2.09937 6.28583 2.10818 6.24326C2.13722 6.10321 2.16647 5.9729 2.1967 5.8509C2.22495 5.7358 2.25637 5.62151 2.29093 5.50816C2.32378 5.40117 2.35838 5.30095 2.39538 5.20601C2.43106 5.11405 2.47083 5.02372 2.51456 4.9353C2.55727 4.84931 2.60316 4.767 2.65299 4.68686C2.70281 4.60672 2.75659 4.52899 2.81523 4.45167C2.87387 4.37435 2.93702 4.29802 3.00574 4.22064C3.07445 4.14325 3.14867 4.06509 3.22915 3.98453C3.32296 3.8902 3.42063 3.79979 3.52193 3.71354C3.61757 3.63217 3.71731 3.55574 3.82076 3.48455C3.92246 3.41407 4.02677 3.35135 4.13538 3.29369C4.24399 3.23604 4.3569 3.18396 4.47565 3.13709C4.59441 3.09022 4.71916 3.04828 4.85131 3.01023C4.99014 2.97128 5.13051 2.93806 5.27207 2.91064C5.42092 2.88146 5.57901 2.85602 5.74781 2.83382C5.9166 2.81161 6.09619 2.79244 6.28817 2.77581C6.42208 2.76425 6.65283 2.75396 6.95667 2.74529L8.06249 2.72344L11.0042 2.70547L11.0037 2.70611Z" fill="url(#paint2_radial_2060_4236)"/>
<defs>
<radialGradient id="paint0_radial_2060_4236" cx="0" cy="0" r="1" gradientUnits="userSpaceOnUse" gradientTransform="translate(3.5053 24.3282) rotate(-9.53101) scale(46.4961 28.2229)">
<stop stop-color="#FED576"/>
<stop offset="0.263" stop-color="#F47133"/>
<stop offset="0.609" stop-color="#BC3081"/>
<stop offset="1" stop-color="#4C63D2"/>
</radialGradient>
<radialGradient id="paint1_radial_2060_4236" cx="0" cy="0" r="1" gradientUnits="userSpaceOnUse" gradientTransform="translate(3.50535 24.3293) rotate(-9.53101) scale(46.4961 28.2229)">
<stop stop-color="#FED576"/>
<stop offset="0.263" stop-color="#F47133"/>
<stop offset="0.609" stop-color="#BC3081"/>
<stop offset="1" stop-color="#4C63D2"/>
</radialGradient>
<radialGradient id="paint2_radial_2060_4236" cx="0" cy="0" r="1" gradientUnits="userSpaceOnUse" gradientTransform="translate(3.50494 24.3285) rotate(-9.53101) scale(46.4961 28.2229)">
<stop stop-color="#FED576"/>
<stop offset="0.263" stop-color="#F47133"/>
<stop offset="0.609" stop-color="#BC3081"/>
<stop offset="1" stop-color="#4C63D2"/>
</radialGradient>
</defs>
</svg>
