<svg width="50" height="50" viewBox="0 0 50 50" fill="none" xmlns="http://www.w3.org/2000/svg">
<rect width="50" height="50" rx="25" fill="#FF9084"/>
<path d="M24.17 29.2502C22.84 29.2502 21.75 28.1302 21.75 26.7502C21.75 26.3402 22.09 26.0002 22.5 26.0002C22.91 26.0002 23.25 26.3402 23.25 26.7502C23.25 27.3002 23.66 27.7502 24.17 27.7502H26.05C26.44 27.7502 26.75 27.4002 26.75 26.9702C26.75 26.4302 26.6 26.3502 26.26 26.2302L23.25 25.1802C22.61 24.9502 21.75 24.4902 21.75 23.0202C21.75 21.7702 22.74 20.7402 23.95 20.7402H25.83C27.16 20.7402 28.25 21.8602 28.25 23.2402C28.25 23.6502 27.91 23.9902 27.5 23.9902C27.09 23.9902 26.75 23.6502 26.75 23.2402C26.75 22.6902 26.34 22.2402 25.83 22.2402H23.95C23.56 22.2402 23.25 22.5902 23.25 23.0202C23.25 23.5602 23.4 23.6402 23.74 23.7602L26.75 24.8102C27.39 25.0402 28.25 25.5002 28.25 26.9702C28.25 28.2302 27.26 29.2502 26.05 29.2502H24.17Z" fill="white"/>
<path d="M24.25 29.5V20.5C24.25 20.09 24.59 19.75 25 19.75C25.41 19.75 25.75 20.09 25.75 20.5V29.5C25.75 29.91 25.41 30.25 25 30.25C24.59 30.25 24.25 29.91 24.25 29.5Z" fill="white"/>
<path d="M14.25 25C14.25 19.07 19.07 14.25 25 14.25C25.41 14.25 25.75 14.59 25.75 15C25.75 15.41 25.41 15.75 25 15.75C19.9 15.75 15.75 19.9 15.75 25C15.75 30.1 19.9 34.25 25 34.25C30.1 34.25 34.25 30.1 34.25 25C34.25 24.59 34.59 24.25 35 24.25C35.41 24.25 35.75 24.59 35.75 25C35.75 30.93 30.93 35.75 25 35.75C19.07 35.75 14.25 30.93 14.25 25Z" fill="white"/>
<path d="M34.25 19V15.75H31C30.59 15.75 30.25 15.41 30.25 15C30.25 14.59 30.59 14.25 31 14.25H35C35.41 14.25 35.75 14.59 35.75 15V19C35.75 19.41 35.41 19.75 35 19.75C34.59 19.75 34.25 19.41 34.25 19Z" fill="white"/>
<path d="M29.4695 20.5295C29.1795 20.2395 29.1795 19.7595 29.4695 19.4695L34.4695 14.4695C34.7595 14.1795 35.2394 14.1795 35.5294 14.4695C35.8194 14.7595 35.8194 15.2395 35.5294 15.5295L30.5295 20.5295C30.3795 20.6795 30.1895 20.7495 29.9995 20.7495C29.8095 20.7495 29.6195 20.6795 29.4695 20.5295Z" fill="white"/>
</svg>
