<svg width="22" height="23" viewBox="0 0 22 23" fill="none" xmlns="http://www.w3.org/2000/svg">
<path d="M0 2.34352C0 1.47339 0.723267 0.767578 1.61551 0.767578H20.2458C21.138 0.767578 21.8613 1.47339 21.8613 2.34352V21.1916C21.8613 22.0621 21.138 22.7676 20.2458 22.7676H1.61551C0.723267 22.7676 0 22.0621 0 21.1916V2.34352Z" fill="#006699"/>
<path d="M6.62703 9.24991V19.1841H3.32508V9.24991H6.62703Z" fill="white"/>
<path d="M6.84418 6.17739C6.84418 7.13072 6.12749 7.89356 4.97604 7.89356H4.95451C3.84642 7.89356 3.12988 7.13072 3.12988 6.17739C3.12988 5.20261 3.86838 4.46094 4.99788 4.46094C6.1275 4.46094 6.82272 5.20261 6.84418 6.17739Z" fill="white"/>
<path fill-rule="evenodd" clip-rule="evenodd" d="M11.7561 19.1841H8.45429C8.45429 19.1841 8.49762 10.1821 8.45429 9.24991H11.7562V10.6564C12.195 9.97949 12.9804 9.0168 14.732 9.0168C16.9044 9.0168 18.5334 10.4366 18.5334 13.488V19.1841H15.2317V13.8696C15.2317 12.5341 14.7538 11.6231 13.559 11.6231C12.6468 11.6231 12.1035 12.2375 11.8648 12.8307C11.7776 13.0429 11.7561 13.3395 11.7561 13.6364V19.1841ZM11.7562 10.6564V10.6906H11.7342C11.7414 10.6793 11.7488 10.6679 11.7562 10.6564Z" fill="white"/>
</svg>
