<svg width="50" height="50" viewBox="0 0 50 50" fill="none" xmlns="http://www.w3.org/2000/svg">
<rect width="50" height="50" rx="25" fill="#F9AC4B"/>
<path d="M14.25 25C14.25 19.07 19.07 14.25 25 14.25C30.93 14.25 35.75 19.07 35.75 25C35.75 25.41 35.41 25.75 35 25.75C34.59 25.75 34.25 25.41 34.25 25C34.25 19.9 30.1 15.75 25 15.75C19.9 15.75 15.75 19.9 15.75 25C15.75 30.1 19.9 34.25 25 34.25C25.41 34.25 25.75 34.59 25.75 35C25.75 35.41 25.41 35.75 25 35.75C19.07 35.75 14.25 30.93 14.25 25Z" fill="white"/>
<path d="M21.0002 34.75C20.5902 34.75 20.2502 34.41 20.2502 34C20.2502 33.59 20.5702 33.26 20.9802 33.25C19.4102 27.89 19.4102 22.11 20.9802 16.75C20.5802 16.74 20.2502 16.41 20.2502 16C20.2502 15.59 20.5902 15.25 21.0002 15.25H22.0002C22.2402 15.25 22.4702 15.37 22.6102 15.56C22.7502 15.76 22.7902 16.01 22.7102 16.24C20.8302 21.89 20.8302 28.12 22.7102 33.77C22.7902 34 22.7502 34.25 22.6102 34.45C22.4702 34.65 22.2402 34.75 22.0002 34.75H21.0002Z" fill="white"/>
<path d="M28.7104 25.0005C28.7104 22.0205 28.2304 19.0704 27.2904 16.2404C27.1604 15.8504 27.3704 15.4204 27.7604 15.2904C28.1504 15.1604 28.5804 15.3705 28.7104 15.7605C29.7004 18.7405 30.2104 21.8505 30.2104 25.0005C30.2104 25.4105 29.8704 25.7505 29.4604 25.7505C29.0504 25.7505 28.7104 25.4105 28.7104 25.0005Z" fill="white"/>
<path d="M16.75 29.0208C16.74 29.4208 16.41 29.7508 16 29.7508C15.59 29.7508 15.25 29.4108 15.25 29.0008V28.0008C15.25 27.7608 15.37 27.5308 15.56 27.3908C15.76 27.2508 16.01 27.2108 16.24 27.2908C19.07 28.2308 22.02 28.7108 25 28.7108C25.41 28.7108 25.75 29.0508 25.75 29.4608C25.75 29.8708 25.41 30.2108 25 30.2108C22.2 30.2108 19.43 29.8108 16.75 29.0208Z" fill="white"/>
<path d="M33.7607 22.7094C28.1107 20.8294 21.8807 20.8294 16.2307 22.7094C15.8407 22.8394 15.4107 22.6294 15.2807 22.2394C15.1507 21.8494 15.3607 21.4194 15.7507 21.2894C21.7107 19.2994 28.2707 19.2994 34.2207 21.2894C34.6107 21.4194 34.8207 21.8494 34.6907 22.2394C34.6107 22.5494 34.3107 22.7494 34.0007 22.7494C33.9207 22.7494 33.8407 22.7394 33.7607 22.7094Z" fill="white"/>
<path fill-rule="evenodd" clip-rule="evenodd" d="M27.25 31.2C27.25 29.02 29.02 27.25 31.2 27.25C33.38 27.25 35.15 29.02 35.15 31.2C35.15 33.38 33.38 35.15 31.2 35.15C29.02 35.15 27.25 33.38 27.25 31.2ZM28.75 31.2C28.75 32.55 29.85 33.65 31.2 33.65C32.55 33.65 33.65 32.55 33.65 31.2C33.65 29.85 32.55 28.75 31.2 28.75C29.85 28.75 28.75 29.85 28.75 31.2Z" fill="white"/>
<path d="M34.4695 35.5295L33.4695 34.5295C33.1795 34.2395 33.1795 33.7595 33.4695 33.4695C33.7595 33.1795 34.2395 33.1795 34.5295 33.4695L35.5295 34.4695C35.8195 34.7595 35.8195 35.2395 35.5295 35.5295C35.3795 35.6795 35.1895 35.7495 34.9995 35.7495C34.8095 35.7495 34.6195 35.6795 34.4695 35.5295Z" fill="white"/>
</svg>
