<svg width="50" height="50" viewBox="0 0 50 50" fill="none" xmlns="http://www.w3.org/2000/svg">
<rect width="50" height="50" rx="25" fill="#9789FF"/>
<path d="M14 35.75C13.59 35.75 13.25 35.41 13.25 35C13.25 34.59 13.59 34.25 14 34.25H36C36.41 34.25 36.75 34.59 36.75 35C36.75 35.41 36.41 35.75 36 35.75H14Z" fill="white"/>
<path d="M32.0303 35.0108V30.5508C32.0303 30.1408 32.3703 29.8008 32.7803 29.8008C33.1903 29.8008 33.5303 30.1408 33.5303 30.5508V35.0108C33.5303 35.4208 33.2003 35.7608 32.7803 35.7608C32.3703 35.7608 32.0303 35.4208 32.0303 35.0108Z" fill="white"/>
<path fill-rule="evenodd" clip-rule="evenodd" d="M29.8496 28.3489V26.0789C29.8496 24.4489 31.1696 23.1289 32.7996 23.1289C34.4296 23.1289 35.7496 24.4489 35.7496 26.0789V28.3489C35.7496 29.9789 34.4296 31.2989 32.7996 31.2989C31.1696 31.2989 29.8496 29.9789 29.8496 28.3489ZM31.3496 26.0889V28.3589C31.3496 29.1589 31.9996 29.8089 32.7996 29.8089C33.5996 29.8089 34.2496 29.1589 34.2496 28.3589V26.0889C34.2496 25.2889 33.5996 24.6389 32.7996 24.6389C31.9996 24.6389 31.3496 25.2889 31.3496 26.0889Z" fill="white"/>
<path d="M26.5498 34.9998V19.0298C26.5498 17.4398 25.8798 16.7598 24.3198 16.7598H18.0898C16.5198 16.7598 15.8398 17.4398 15.8398 19.0298V34.9998C15.8398 35.4098 15.4998 35.7498 15.0898 35.7498C14.6798 35.7498 14.3398 35.4098 14.3398 34.9998V19.0298C14.3398 16.5998 15.6698 15.2598 18.0898 15.2598H24.3198C26.7298 15.2598 28.0498 16.5998 28.0498 19.0298V34.9998C28.0498 35.4098 27.7098 35.7498 27.2998 35.7498C26.8898 35.7498 26.5498 35.4098 26.5498 34.9998Z" fill="white"/>
<path d="M18.7998 22C18.3898 22 18.0498 21.66 18.0498 21.25C18.0498 20.84 18.3898 20.5 18.7998 20.5H23.7498C24.1598 20.5 24.4998 20.84 24.4998 21.25C24.4998 21.66 24.1598 22 23.7498 22H18.7998Z" fill="white"/>
<path d="M18.7998 25.75C18.3898 25.75 18.0498 25.41 18.0498 25C18.0498 24.59 18.3898 24.25 18.7998 24.25H23.7498C24.1598 24.25 24.4998 24.59 24.4998 25C24.4998 25.41 24.1598 25.75 23.7498 25.75H18.7998Z" fill="white"/>
<path d="M20.5 35V31.25C20.5 30.84 20.84 30.5 21.25 30.5C21.66 30.5 22 30.84 22 31.25V35C22 35.41 21.66 35.75 21.25 35.75C20.84 35.75 20.5 35.41 20.5 35Z" fill="white"/>
</svg>
