<svg width="591" height="420" viewBox="0 0 591 420" fill="none" xmlns="http://www.w3.org/2000/svg">
<g clip-path="url(#clip0_1707_85013)">
<mask id="mask0_1707_85013" style="mask-type:luminance" maskUnits="userSpaceOnUse" x="0" y="0" width="525" height="420">
<path d="M513.436 0H11.0268C4.93688 0 0 4.93952 0 11.0327V407.979C0 414.072 4.93688 419.012 11.0268 419.012H513.436C519.526 419.012 524.463 414.072 524.463 407.979V11.0327C524.463 4.93952 519.526 0 513.436 0Z" fill="white"/>
</mask>
<g mask="url(#mask0_1707_85013)">
<path d="M513.436 0H11.0268C4.93688 0 0 4.93952 0 11.0327V407.979C0 414.072 4.93688 419.012 11.0268 419.012H513.436C519.526 419.012 524.463 414.072 524.463 407.979V11.0327C524.463 4.93952 519.526 0 513.436 0Z" fill="#3583E0"/>
<path d="M524.463 0H0V34.4772H524.463V0Z" fill="url(#paint0_linear_1707_85013)"/>
<g filter="url(#filter0_d_1707_85013)">
<path d="M22.0554 22.7554C25.1004 22.7554 27.5688 20.2856 27.5688 17.239C27.5688 14.1924 25.1004 11.7227 22.0554 11.7227C19.0104 11.7227 16.542 14.1924 16.542 17.239C16.542 20.2856 19.0104 22.7554 22.0554 22.7554Z" fill="#F54242"/>
</g>
<g filter="url(#filter1_d_1707_85013)">
<path d="M39.9741 22.7554C43.0191 22.7554 45.4875 20.2856 45.4875 17.239C45.4875 14.1924 43.0191 11.7227 39.9741 11.7227C36.9291 11.7227 34.4607 14.1924 34.4607 17.239C34.4607 20.2856 36.9291 22.7554 39.9741 22.7554Z" fill="#F5CE42"/>
</g>
<g filter="url(#filter2_d_1707_85013)">
<path d="M57.8926 22.7554C60.9375 22.7554 63.406 20.2856 63.406 17.239C63.406 14.1924 60.9375 11.7227 57.8926 11.7227C54.8476 11.7227 52.3792 14.1924 52.3792 17.239C52.3792 20.2856 54.8476 22.7554 57.8926 22.7554Z" fill="#2DDE4A"/>
</g>
<path d="M156.893 296.176H28.0168C25.2573 296.176 23.0203 298.414 23.0203 301.175V389.437C23.0203 392.198 25.2573 394.436 28.0168 394.436H156.893C159.653 394.436 161.89 392.198 161.89 389.437V301.175C161.89 298.414 159.653 296.176 156.893 296.176Z" fill="#7CB3F6" stroke="#3583E0" stroke-width="0.935811" stroke-dasharray="2.5 2.5"/>
<path d="M145.752 315.572C145.114 315.572 144.503 315.327 144.054 314.888C143.603 314.45 143.35 313.856 143.35 313.235C143.35 312.615 143.603 312.022 144.054 311.583C144.503 311.145 145.114 310.899 145.752 310.899C146.388 310.899 146.999 311.145 147.45 311.583C147.899 312.022 148.152 312.615 148.152 313.235C148.152 313.856 147.899 314.45 147.45 314.888C146.999 315.327 146.388 315.572 145.752 315.572ZM150.849 313.883C150.876 313.67 150.896 313.457 150.896 313.235C150.896 313.016 150.876 312.794 150.849 312.568L152.296 311.479C152.426 311.38 152.46 311.2 152.379 311.053L151.007 308.743C150.924 308.596 150.739 308.535 150.588 308.596L148.88 309.263C148.523 309.002 148.152 308.776 147.72 308.609L147.466 306.839C147.453 306.761 147.411 306.689 147.348 306.638C147.285 306.586 147.205 306.559 147.124 306.559H144.38C144.207 306.559 144.064 306.679 144.036 306.839L143.782 308.609C143.35 308.776 142.98 309.002 142.623 309.263L140.914 308.596C140.764 308.535 140.579 308.596 140.497 308.743L139.124 311.053C139.035 311.2 139.076 311.38 139.207 311.479L140.654 312.568C140.627 312.794 140.606 313.016 140.606 313.235C140.606 313.457 140.627 313.67 140.654 313.883L139.207 314.992C139.076 315.092 139.035 315.272 139.124 315.419L140.497 317.729C140.579 317.876 140.764 317.93 140.914 317.876L142.623 317.201C142.98 317.469 143.35 317.695 143.782 317.863L144.036 319.632C144.064 319.792 144.207 319.912 144.38 319.912H147.124C147.295 319.912 147.439 319.792 147.466 319.632L147.72 317.863C148.152 317.689 148.523 317.469 148.88 317.201L150.588 317.876C150.739 317.93 150.924 317.876 151.007 317.729L152.379 315.419C152.46 315.272 152.426 315.092 152.296 314.992L150.849 313.883Z" fill="#2B7BD9"/>
<path d="M134.456 319.422H59.966C59.1826 319.422 58.5476 320.193 58.5476 321.145V323.225C58.5476 324.177 59.1826 324.948 59.966 324.948H134.456C135.24 324.948 135.875 324.177 135.875 323.225V321.145C135.875 320.193 135.24 319.422 134.456 319.422Z" fill="white" fill-opacity="0.56"/>
<path d="M120.359 328.264H59.7026C59.0647 328.264 58.5476 329.035 58.5476 329.987V332.067C58.5476 333.018 59.0647 333.79 59.7026 333.79H120.359C120.997 333.79 121.514 333.018 121.514 332.067V329.987C121.514 329.035 120.997 328.264 120.359 328.264Z" fill="white" fill-opacity="0.56"/>
<path d="M124.159 310.584H60.0576C59.1081 310.584 58.3384 311.354 58.3384 312.304V314.38C58.3384 315.33 59.1081 316.1 60.0576 316.1H124.159C125.108 316.1 125.878 315.33 125.878 314.38V312.304C125.878 311.354 125.108 310.584 124.159 310.584Z" fill="white"/>
<path d="M149.943 368.105H34.0071C33.0576 368.105 32.2878 368.876 32.2878 369.826V372.259C32.2878 373.209 33.0576 373.979 34.0071 373.979H149.943C150.892 373.979 151.662 373.209 151.662 372.259V369.826C151.662 368.876 150.892 368.105 149.943 368.105Z" fill="white" fill-opacity="0.46"/>
<path d="M149.943 376.914H34.0071C33.0576 376.914 32.2878 377.684 32.2878 378.634V381.068C32.2878 382.018 33.0576 382.788 34.0071 382.788H149.943C150.892 382.788 151.662 382.018 151.662 381.068V378.634C151.662 377.684 150.892 376.914 149.943 376.914Z" fill="white" fill-opacity="0.46"/>
<path d="M149.943 359.293H34.0071C33.0576 359.293 32.2878 360.063 32.2878 361.013V363.447C32.2878 364.397 33.0576 365.167 34.0071 365.167H149.943C150.892 365.167 151.662 364.397 151.662 363.447V361.013C151.662 360.063 150.892 359.293 149.943 359.293Z" fill="white" fill-opacity="0.46"/>
<path d="M149.943 350.369H34.0071C33.0576 350.369 32.2878 351.139 32.2878 352.089V354.523C32.2878 355.473 33.0576 356.243 34.0071 356.243H149.943C150.892 356.243 151.662 355.473 151.662 354.523V352.089C151.662 351.139 150.892 350.369 149.943 350.369Z" fill="white" fill-opacity="0.46"/>
<path d="M42.601 327.602C48.2968 327.602 52.9141 322.982 52.9141 317.284C52.9141 311.585 48.2968 306.965 42.601 306.965C36.9052 306.965 32.2878 311.585 32.2878 317.284C32.2878 322.982 36.9052 327.602 42.601 327.602Z" fill="#1E6FD0"/>
<mask id="mask1_1707_85013" style="mask-type:luminance" maskUnits="userSpaceOnUse" x="37" y="311" width="11" height="12">
<path d="M47.963 311.92H37.2373V322.651H47.963V311.92Z" fill="white"/>
</mask>
<g mask="url(#mask1_1707_85013)">
<path d="M39.4731 321.756H45.7298C46.2228 321.756 46.6237 321.355 46.6237 320.862V314.154C46.6237 313.661 46.2228 313.26 45.7298 313.26H44.836C44.836 313.142 44.7889 313.028 44.7051 312.944C44.6214 312.86 44.5077 312.812 44.3892 312.812H40.8139C40.6953 312.812 40.5817 312.86 40.4978 312.944C40.4141 313.028 40.367 313.142 40.367 313.26H39.4731C38.9802 313.26 38.5793 313.661 38.5793 314.154V320.862C38.5793 321.355 38.9802 321.756 39.4731 321.756ZM39.4731 314.154H40.367V315.048H44.836V314.154H45.7298V320.862H39.4731V314.154Z" fill="white"/>
<path d="M42.1529 317.994L41.3517 317.193L40.7197 317.825L42.1529 319.259L44.48 316.931L43.848 316.299L42.1529 317.994Z" fill="white"/>
</g>
<path d="M311.496 296.176H182.619C179.86 296.176 177.623 298.414 177.623 301.175V389.437C177.623 392.198 179.86 394.436 182.619 394.436H311.496C314.255 394.436 316.492 392.198 316.492 389.437V301.175C316.492 298.414 314.255 296.176 311.496 296.176Z" fill="#7CB3F6" stroke="#3583E0" stroke-width="0.935811" stroke-dasharray="2.5 2.5"/>
<path d="M195.958 312C195.958 312.15 195.927 312.297 195.864 312.441C195.802 312.583 195.721 312.721 195.622 312.858C195.527 312.991 195.417 313.121 195.293 313.25C195.168 313.374 195.044 313.497 194.919 313.616C194.853 313.679 194.779 313.753 194.696 313.841C194.613 313.928 194.534 314.015 194.46 314.101C194.385 314.189 194.321 314.274 194.267 314.357C194.214 314.435 194.184 314.502 194.18 314.556H196.095V315.19H193.353C193.35 315.157 193.347 315.117 193.347 315.072C193.347 315.022 193.347 314.985 193.347 314.96C193.347 314.761 193.378 314.579 193.44 314.413C193.507 314.243 193.592 314.085 193.695 313.94C193.799 313.795 193.915 313.658 194.043 313.53C194.172 313.401 194.3 313.275 194.429 313.151C194.528 313.055 194.623 312.962 194.715 312.87C194.806 312.78 194.884 312.69 194.95 312.603C195.021 312.512 195.077 312.42 195.118 312.33C195.16 312.235 195.18 312.136 195.18 312.037C195.18 311.821 195.118 311.669 194.995 311.577C194.87 311.486 194.718 311.44 194.541 311.44C194.425 311.44 194.316 311.457 194.217 311.49C194.117 311.523 194.029 311.563 193.951 311.608C193.876 311.653 193.809 311.702 193.751 311.752C193.693 311.797 193.65 311.835 193.62 311.863L193.248 311.335C193.421 311.169 193.625 311.037 193.857 310.937C194.093 310.833 194.346 310.781 194.616 310.781C195.075 310.781 195.413 310.891 195.629 311.111C195.847 311.326 195.958 311.622 195.958 312Z" fill="#DDDEFF"/>
<path d="M300.354 315.572C299.717 315.572 299.106 315.327 298.656 314.888C298.205 314.45 297.952 313.856 297.952 313.235C297.952 312.615 298.205 312.022 298.656 311.583C299.106 311.145 299.717 310.899 300.354 310.899C300.99 310.899 301.601 311.145 302.052 311.583C302.501 312.022 302.754 312.615 302.754 313.235C302.754 313.856 302.501 314.45 302.052 314.888C301.601 315.327 300.99 315.572 300.354 315.572ZM305.451 313.883C305.479 313.67 305.5 313.457 305.5 313.235C305.5 313.016 305.479 312.794 305.451 312.568L306.899 311.479C307.03 311.38 307.064 311.2 306.981 311.053L305.609 308.743C305.526 308.596 305.342 308.535 305.19 308.596L303.482 309.263C303.126 309.002 302.754 308.776 302.323 308.609L302.068 306.839C302.055 306.761 302.013 306.689 301.95 306.638C301.887 306.586 301.808 306.559 301.726 306.559H298.982C298.81 306.559 298.666 306.679 298.638 306.839L298.384 308.609C297.952 308.776 297.582 309.002 297.226 309.263L295.518 308.596C295.366 308.535 295.181 308.596 295.099 308.743L293.727 311.053C293.638 311.2 293.678 311.38 293.809 311.479L295.257 312.568C295.229 312.794 295.208 313.016 295.208 313.235C295.208 313.457 295.229 313.67 295.257 313.883L293.809 314.992C293.678 315.092 293.638 315.272 293.727 315.419L295.099 317.729C295.181 317.876 295.366 317.93 295.518 317.876L297.226 317.201C297.582 317.469 297.952 317.695 298.384 317.863L298.638 319.632C298.666 319.792 298.81 319.912 298.982 319.912H301.726C301.897 319.912 302.042 319.792 302.068 319.632L302.323 317.863C302.754 317.689 303.126 317.469 303.482 317.201L305.19 317.876C305.342 317.93 305.526 317.876 305.609 317.729L306.981 315.419C307.064 315.272 307.03 315.092 306.899 314.992L305.451 313.883Z" fill="#2B7BD9"/>
<path opacity="0.6" d="M289.111 318.316H214.62C213.837 318.316 213.202 319.088 213.202 320.04V322.119C213.202 323.071 213.837 323.843 214.62 323.843H289.111C289.894 323.843 290.529 323.071 290.529 322.119V320.04C290.529 319.088 289.894 318.316 289.111 318.316Z" fill="#F0F0FF"/>
<path opacity="0.6" d="M275.013 327H214.357C213.719 327 213.202 327.772 213.202 328.723V330.803C213.202 331.755 213.719 332.526 214.357 332.526H275.013C275.651 332.526 276.168 331.755 276.168 330.803V328.723C276.168 327.772 275.651 327 275.013 327Z" fill="#F0F0FF"/>
<path d="M278.763 309.479H214.663C213.713 309.479 212.943 310.249 212.943 311.199V313.275C212.943 314.225 213.713 314.995 214.663 314.995H278.763C279.713 314.995 280.483 314.225 280.483 313.275V311.199C280.483 310.249 279.713 309.479 278.763 309.479Z" fill="white"/>
<path d="M197.132 326.673C202.829 326.673 207.448 322.052 207.448 316.352C207.448 310.652 202.829 306.031 197.132 306.031C191.435 306.031 186.817 310.652 186.817 316.352C186.817 322.052 191.435 326.673 197.132 326.673Z" fill="#1E6FD0"/>
<path d="M201.342 314.02L198.163 310.838H193.922C193.641 310.838 193.372 310.95 193.173 311.148C192.974 311.347 192.863 311.617 192.863 311.899V320.384C192.863 320.665 192.974 320.934 193.173 321.133C193.372 321.332 193.641 321.444 193.922 321.444H200.283C200.563 321.444 200.833 321.332 201.032 321.133C201.23 320.934 201.342 320.665 201.342 320.384V314.02ZM195.513 319.854H194.452V315.081H195.513V319.854ZM197.633 319.854H196.572V316.671H197.633V319.854ZM199.752 319.854H198.693V318.262H199.752V319.854ZM198.163 314.55H197.633V311.899L200.283 314.55H198.163Z" fill="white"/>
<path d="M304.546 367.125H188.61C187.661 367.125 186.891 367.895 186.891 368.845V371.279C186.891 372.229 187.661 372.999 188.61 372.999H304.546C305.495 372.999 306.265 372.229 306.265 371.279V368.845C306.265 367.895 305.495 367.125 304.546 367.125Z" fill="#EDEDFF"/>
<path d="M304.546 375.934H188.61C187.661 375.934 186.891 376.704 186.891 377.654V380.087C186.891 381.037 187.661 381.808 188.61 381.808H304.546C305.495 381.808 306.265 381.037 306.265 380.087V377.654C306.265 376.704 305.495 375.934 304.546 375.934Z" fill="#EDEDFF"/>
<path d="M304.546 358.312H188.61C187.661 358.312 186.891 359.083 186.891 360.033V362.466C186.891 363.416 187.661 364.187 188.61 364.187H304.546C305.495 364.187 306.265 363.416 306.265 362.466V360.033C306.265 359.083 305.495 358.312 304.546 358.312Z" fill="#EDEDFF"/>
<path d="M304.546 350H188.61C187.661 350 186.891 350.77 186.891 351.72V354.154C186.891 355.104 187.661 355.874 188.61 355.874H304.546C305.495 355.874 306.265 355.104 306.265 354.154V351.72C306.265 350.77 305.495 350 304.546 350Z" fill="#EDEDFF"/>
<path d="M466.093 296.176H337.217C334.457 296.176 332.22 298.414 332.22 301.175V389.437C332.22 392.198 334.457 394.436 337.217 394.436H466.093C468.853 394.436 471.09 392.198 471.09 389.437V301.175C471.09 298.414 468.853 296.176 466.093 296.176Z" fill="#7CB3F6" stroke="#3583E0" stroke-width="0.935811" stroke-dasharray="2.5 2.5"/>
<path d="M454.952 315.572C454.315 315.572 453.704 315.327 453.254 314.888C452.803 314.45 452.55 313.856 452.55 313.235C452.55 312.615 452.803 312.022 453.254 311.583C453.704 311.145 454.315 310.899 454.952 310.899C455.589 310.899 456.199 311.145 456.65 311.583C457.1 312.022 457.353 312.615 457.353 313.235C457.353 313.856 457.1 314.45 456.65 314.888C456.199 315.327 455.589 315.572 454.952 315.572ZM460.049 313.883C460.076 313.67 460.097 313.457 460.097 313.235C460.097 313.016 460.076 312.794 460.049 312.568L461.497 311.479C461.627 311.38 461.661 311.2 461.579 311.053L460.207 308.743C460.125 308.596 459.939 308.535 459.788 308.596L458.08 309.263C457.723 309.002 457.353 308.776 456.92 308.609L456.667 306.839C456.653 306.761 456.611 306.689 456.548 306.638C456.485 306.586 456.405 306.559 456.324 306.559H453.58C453.408 306.559 453.264 306.679 453.236 306.839L452.983 308.609C452.55 308.776 452.18 309.002 451.823 309.263L450.115 308.596C449.964 308.535 449.778 308.596 449.697 308.743L448.325 311.053C448.235 311.2 448.276 311.38 448.406 311.479L449.855 312.568C449.827 312.794 449.806 313.016 449.806 313.235C449.806 313.457 449.827 313.67 449.855 313.883L448.406 314.992C448.276 315.092 448.235 315.272 448.325 315.419L449.697 317.729C449.778 317.876 449.964 317.93 450.115 317.876L451.823 317.201C452.18 317.469 452.55 317.695 452.983 317.863L453.236 319.632C453.264 319.792 453.408 319.912 453.58 319.912H456.324C456.495 319.912 456.64 319.792 456.667 319.632L456.92 317.863C457.353 317.689 457.723 317.469 458.08 317.201L459.788 317.876C459.939 317.93 460.125 317.876 460.207 317.729L461.579 315.419C461.661 315.272 461.627 315.092 461.497 314.992L460.049 313.883Z" fill="#2B7BD9"/>
<path opacity="0.6" d="M443.451 319.547H368.957C368.174 319.547 367.539 320.317 367.539 321.267V323.343C367.539 324.293 368.174 325.063 368.957 325.063H443.451C444.234 325.063 444.869 324.293 444.869 323.343V321.267C444.869 320.317 444.234 319.547 443.451 319.547Z" fill="#E8E9FF"/>
<path opacity="0.6" d="M443.451 327H368.957C368.174 327 367.539 327.77 367.539 328.72V330.796C367.539 331.746 368.174 332.516 368.957 332.516H443.451C444.234 332.516 444.869 331.746 444.869 330.796V328.72C444.869 327.77 444.234 327 443.451 327Z" fill="#E8E9FF"/>
<path d="M433.359 311.584H369.258C368.309 311.584 367.539 312.354 367.539 313.304V315.38C367.539 316.33 368.309 317.1 369.258 317.1H433.359C434.309 317.1 435.078 316.33 435.078 315.38V313.304C435.078 312.354 434.309 311.584 433.359 311.584Z" fill="white"/>
<path d="M351.732 328.779C357.429 328.779 362.048 324.158 362.048 318.458C362.048 312.758 357.429 308.137 351.732 308.137C346.035 308.137 341.417 312.758 341.417 318.458C341.417 324.158 346.035 328.779 351.732 328.779Z" fill="#1E6FD0"/>
<path d="M351.764 320.131C351.251 320.131 350.759 319.932 350.396 319.579C350.032 319.225 349.828 318.746 349.828 318.246C349.828 317.747 350.032 317.267 350.396 316.913C350.759 316.56 351.251 316.362 351.764 316.362C352.278 316.362 352.771 316.56 353.134 316.913C353.498 317.267 353.701 317.747 353.701 318.246C353.701 318.746 353.498 319.225 353.134 319.579C352.771 319.932 352.278 320.131 351.764 320.131ZM355.876 318.768C355.898 318.597 355.915 318.424 355.915 318.246C355.915 318.068 355.898 317.89 355.876 317.708L357.042 316.83C357.147 316.75 357.176 316.604 357.109 316.485L356.003 314.622C355.937 314.504 355.786 314.455 355.665 314.504L354.287 315.042C354 314.832 353.701 314.65 353.353 314.515L353.147 313.088C353.136 313.024 353.103 312.966 353.052 312.925C353.002 312.883 352.937 312.861 352.871 312.861H350.659C350.519 312.861 350.403 312.959 350.381 313.088L350.177 314.515C349.828 314.65 349.53 314.832 349.242 315.042L347.864 314.504C347.742 314.455 347.593 314.504 347.527 314.622L346.42 316.485C346.348 316.604 346.381 316.75 346.486 316.83L347.654 317.708C347.632 317.89 347.615 318.068 347.615 318.246C347.615 318.424 347.632 318.597 347.654 318.768L346.486 319.662C346.381 319.743 346.348 319.889 346.42 320.007L347.527 321.869C347.593 321.989 347.742 322.032 347.864 321.989L349.242 321.445C349.53 321.659 349.828 321.843 350.177 321.978L350.381 323.404C350.403 323.534 350.519 323.631 350.659 323.631H352.871C353.009 323.631 353.125 323.534 353.147 323.404L353.353 321.978C353.701 321.837 354 321.659 354.287 321.445L355.665 321.989C355.786 322.032 355.937 321.989 356.003 321.869L357.109 320.007C357.176 319.889 357.147 319.743 357.042 319.662L355.876 318.768Z" fill="white"/>
<path d="M459.144 367.121H343.208C342.258 367.121 341.489 367.891 341.489 368.841V371.275C341.489 372.225 342.258 372.995 343.208 372.995H459.144C460.093 372.995 460.863 372.225 460.863 371.275V368.841C460.863 367.891 460.093 367.121 459.144 367.121Z" fill="#EDEDFF"/>
<path d="M459.144 375.934H343.208C342.258 375.934 341.489 376.704 341.489 377.654V380.087C341.489 381.037 342.258 381.808 343.208 381.808H459.144C460.093 381.808 460.863 381.037 460.863 380.087V377.654C460.863 376.704 460.093 375.934 459.144 375.934Z" fill="#EDEDFF"/>
<path d="M459.144 358.312H343.208C342.258 358.312 341.489 359.083 341.489 360.033V362.466C341.489 363.416 342.258 364.187 343.208 364.187H459.144C460.093 364.187 460.863 363.416 460.863 362.466V360.033C460.863 359.083 460.093 358.312 459.144 358.312Z" fill="#EDEDFF"/>
<path d="M459.144 350H343.208C342.258 350 341.489 350.77 341.489 351.72V354.154C341.489 355.104 342.258 355.874 343.208 355.874H459.144C460.093 355.874 460.863 355.104 460.863 354.154V351.72C460.863 350.77 460.093 350 459.144 350Z" fill="#EDEDFF"/>
<path d="M414.872 90.0703H30.3312C26.008 90.0703 22.5034 93.5768 22.5034 97.9023V263.353C22.5034 267.679 26.008 271.185 30.3312 271.185H414.872C419.195 271.185 422.7 267.679 422.7 263.353V97.9023C422.7 93.5768 419.195 90.0703 414.872 90.0703Z" fill="white"/>
<path d="M52.836 139.02C63.1035 139.02 71.4271 130.692 71.4271 120.419C71.4271 110.146 63.1035 101.818 52.836 101.818C42.5684 101.818 34.2449 110.146 34.2449 120.419C34.2449 130.692 42.5684 139.02 52.836 139.02Z" fill="#1DA96E"/>
<path d="M65.7573 108.791H41.2139V133.348H65.7573V108.791Z" fill="#1DA96E"/>
<path d="M61.6689 116.976L55.533 110.836H47.3519C46.8094 110.836 46.2892 111.051 45.9057 111.436C45.5221 111.82 45.3066 112.34 45.3066 112.883V129.254C45.3066 129.797 45.5221 130.317 45.9057 130.701C46.2892 131.084 46.8094 131.3 47.3519 131.3H59.6236C60.166 131.3 60.6862 131.084 61.0699 130.701C61.4534 130.317 61.6689 129.797 61.6689 129.254V116.976ZM50.4198 128.231H48.3745V119.022H50.4198V128.231ZM54.5104 128.231H52.4651V122.091H54.5104V128.231ZM58.6009 128.231H56.5556V125.161H58.6009V128.231ZM55.533 117.998H54.5104V112.883L59.6236 117.998H55.533Z" fill="#F4FDFF"/>
<path opacity="0.1" d="M289.627 123.018H84.1471C83.0663 123.018 82.1902 123.894 82.1902 124.976V131.275C82.1902 132.357 83.0663 133.233 84.1471 133.233H289.627C290.708 133.233 291.584 132.357 291.584 131.275V124.976C291.584 123.894 290.708 123.018 289.627 123.018Z" fill="#220C79"/>
<path d="M148.727 107.691H84.1471C83.0663 107.691 82.1902 108.568 82.1902 109.649V115.523C82.1902 116.605 83.0663 117.481 84.1471 117.481H148.727C149.807 117.481 150.684 116.605 150.684 115.523V109.649C150.684 108.568 149.807 107.691 148.727 107.691Z" fill="#090C4F" fill-opacity="0.18"/>
<path d="M390.412 118.313C389.386 118.313 388.401 117.917 387.674 117.209C386.948 116.503 386.54 115.544 386.54 114.544C386.54 113.545 386.948 112.586 387.674 111.88C388.401 111.172 389.386 110.775 390.412 110.775C391.44 110.775 392.425 111.172 393.151 111.88C393.878 112.586 394.285 113.545 394.285 114.544C394.285 115.544 393.878 116.503 393.151 117.209C392.425 117.917 391.44 118.313 390.412 118.313ZM398.634 115.589C398.679 115.244 398.712 114.899 398.712 114.544C398.712 114.189 398.679 113.834 398.634 113.468L400.969 111.712C401.18 111.55 401.235 111.26 401.102 111.023L398.889 107.297C398.756 107.06 398.458 106.963 398.214 107.06L395.459 108.137C394.883 107.717 394.285 107.351 393.588 107.081L393.18 104.228C393.156 104.101 393.089 103.986 392.987 103.903C392.886 103.82 392.758 103.775 392.626 103.775H388.2C387.924 103.775 387.69 103.969 387.646 104.228L387.238 107.081C386.541 107.351 385.943 107.717 385.367 108.137L382.612 107.06C382.368 106.963 382.07 107.06 381.937 107.297L379.724 111.023C379.58 111.26 379.646 111.55 379.856 111.712L382.191 113.468C382.147 113.834 382.114 114.189 382.114 114.544C382.114 114.899 382.147 115.244 382.191 115.589L379.856 117.376C379.646 117.539 379.58 117.829 379.724 118.066L381.937 121.792C382.07 122.029 382.368 122.115 382.612 122.029L385.367 120.942C385.943 121.372 386.541 121.739 387.238 122.007L387.646 124.861C387.69 125.12 387.924 125.313 388.2 125.313H392.626C392.902 125.313 393.135 125.12 393.18 124.861L393.588 122.007C394.285 121.728 394.883 121.372 395.459 120.942L398.214 122.029C398.458 122.115 398.756 122.029 398.889 121.792L401.102 118.066C401.235 117.829 401.18 117.539 400.969 117.376L398.634 115.589Z" fill="#2B7BD9"/>
<path d="M41.6992 227.944C41.6992 225.25 43.8825 223.064 46.5757 223.064H55.1803C57.8735 223.064 60.0568 225.25 60.0568 227.944V238.312H41.6992V227.944Z" fill="#2B7BD9"/>
<path d="M41.6992 238.311H60.0568V243.799C60.0568 246.494 57.8735 248.679 55.1803 248.679H46.5757C43.8825 248.679 41.6992 246.494 41.6992 243.799V238.311Z" fill="#94C5FF"/>
<g opacity="0.6">
<path d="M83.8989 220.595C83.8989 217.901 86.0822 215.717 88.7754 215.717H97.38C100.073 215.717 102.256 217.901 102.256 220.595V223.035H83.8989V220.595Z" fill="#4896F2"/>
<path d="M83.8989 223.035H102.256V244.381C102.256 247.076 100.073 249.26 97.38 249.26H88.7754C86.0822 249.26 83.8989 247.076 83.8989 244.381V223.035Z" fill="#94C5FF"/>
</g>
<path d="M126.096 213.811C126.096 211.117 128.28 208.932 130.973 208.932H139.578C142.271 208.932 144.455 211.117 144.455 213.811V225.399H126.096V213.811Z" fill="#2B7BD9"/>
<path d="M126.096 225.398H144.455V244.914C144.455 247.609 142.271 249.794 139.578 249.794H130.973C128.28 249.794 126.096 247.609 126.096 244.914V225.398Z" fill="#94C5FF"/>
<g opacity="0.6">
<path d="M168.295 176.497C168.295 173.802 170.477 171.617 173.171 171.617H181.775C184.468 171.617 186.652 173.802 186.652 176.497V216.139H168.295V176.497Z" fill="#4896F2"/>
<path d="M168.295 216.139H186.652V247.852C186.652 250.547 184.468 252.732 181.775 252.732H173.171C170.477 252.732 168.295 250.547 168.295 247.852V216.139Z" fill="#94C5FF"/>
</g>
<path d="M210.494 203.632C210.494 200.937 212.677 198.752 215.37 198.752H223.976C226.669 198.752 228.852 200.937 228.852 203.632V228.026H210.494V203.632Z" fill="#2B7BD9"/>
<path d="M210.494 228.027H228.852V245.714C228.852 248.408 226.669 250.592 223.976 250.592H215.37C212.677 250.592 210.494 248.408 210.494 245.714V228.027Z" fill="#94C5FF"/>
<g opacity="0.6">
<path d="M252.692 212.679C252.692 209.985 254.874 207.801 257.568 207.801H266.173C268.866 207.801 271.049 209.985 271.049 212.679V234.025H252.692V212.679Z" fill="#4896F2"/>
<path d="M252.692 234.023H271.049V245.002C271.049 247.697 268.866 249.881 266.173 249.881H257.568C254.874 249.881 252.692 247.697 252.692 245.002V234.023Z" fill="#94C5FF"/>
</g>
<path d="M294.891 192.893C294.891 190.199 297.075 188.014 299.768 188.014H308.373C311.066 188.014 313.249 190.199 313.249 192.893V225.827H294.891V192.893Z" fill="#2B7BD9"/>
<path d="M294.891 225.824H313.249V246.56C313.249 249.255 311.066 251.44 308.373 251.44H299.768C297.075 251.44 294.891 249.255 294.891 246.56V225.824Z" fill="#94C5FF"/>
<g opacity="0.6">
<path d="M337.089 218.42C337.089 215.726 339.273 213.541 341.966 213.541H350.57C353.263 213.541 355.447 215.726 355.447 218.421V238.596H337.089V218.42Z" fill="#4896F2"/>
<path d="M337.089 238.598H355.447V244.554C355.447 247.249 353.263 249.433 350.57 249.433H341.966C339.273 249.433 337.089 247.249 337.089 244.554V238.598Z" fill="#94C5FF"/>
</g>
<path d="M379.238 178.244C379.238 175.549 381.42 173.365 384.114 173.365H392.718C395.411 173.365 397.595 175.549 397.595 178.244V226.862H379.238V178.244Z" fill="#2B7BD9"/>
<path d="M379.238 226.861H397.595V247.597C397.595 250.292 395.411 252.476 392.718 252.476H384.114C381.42 252.476 379.238 250.292 379.238 247.597V226.861Z" fill="#94C5FF"/>
<path d="M32.2883 211.821L51.0595 211.193L92.6526 203.624L135.783 192.563L177.534 153.873L219.755 184.402L262.037 191.938L304.354 173.598L346.299 197.844L388.336 157.67H409.981" stroke="#94C5FF" stroke-width="1.71552"/>
<path d="M50.736 214.651C52.6084 214.651 54.1262 213.133 54.1262 211.259C54.1262 209.386 52.6084 207.867 50.736 207.867C48.8636 207.867 47.3457 209.386 47.3457 211.259C47.3457 213.133 48.8636 214.651 50.736 214.651Z" fill="#C0C5FD" stroke="#81BAFE" stroke-width="2.20719"/>
<path d="M92.7697 206.737C94.6421 206.737 96.1599 205.219 96.1599 203.345C96.1599 201.472 94.6421 199.953 92.7697 199.953C90.8973 199.953 89.3794 201.472 89.3794 203.345C89.3794 205.219 90.8973 206.737 92.7697 206.737Z" fill="#C0C5FD" stroke="#81BAFE" stroke-width="2.20719"/>
<path d="M135.433 195.677C137.305 195.677 138.823 194.158 138.823 192.285C138.823 190.411 137.305 188.893 135.433 188.893C133.561 188.893 132.043 190.411 132.043 192.285C132.043 194.158 133.561 195.677 135.433 195.677Z" fill="#C0C5FD" stroke="#81BAFE" stroke-width="2.20719"/>
<path d="M177.469 157.552C179.341 157.552 180.859 156.033 180.859 154.16C180.859 152.286 179.341 150.768 177.469 150.768C175.596 150.768 174.079 152.286 174.079 154.16C174.079 156.033 175.596 157.552 177.469 157.552Z" fill="#C0C5FD" stroke="#81BAFE" stroke-width="2.20719"/>
<path d="M219.505 187.515C221.377 187.515 222.895 185.996 222.895 184.123C222.895 182.249 221.377 180.73 219.505 180.73C217.633 180.73 216.115 182.249 216.115 184.123C216.115 185.996 217.633 187.515 219.505 187.515Z" fill="#C0C5FD" stroke="#81BAFE" stroke-width="2.20719"/>
<path d="M262.169 195.05C264.041 195.05 265.559 193.531 265.559 191.658C265.559 189.784 264.041 188.266 262.169 188.266C260.296 188.266 258.778 189.784 258.778 191.658C258.778 193.531 260.296 195.05 262.169 195.05Z" fill="#C0C5FD" stroke="#81BAFE" stroke-width="2.20719"/>
<path d="M304.203 177.341C306.075 177.341 307.593 175.822 307.593 173.949C307.593 172.075 306.075 170.557 304.203 170.557C302.33 170.557 300.812 172.075 300.812 173.949C300.812 175.822 302.33 177.341 304.203 177.341Z" fill="#C0C5FD" stroke="#81BAFE" stroke-width="2.20719"/>
<path d="M346.238 201.19C348.11 201.19 349.628 199.672 349.628 197.798C349.628 195.925 348.11 194.406 346.238 194.406C344.365 194.406 342.847 195.925 342.847 197.798C342.847 199.672 344.365 201.19 346.238 201.19Z" fill="#C0C5FD" stroke="#81BAFE" stroke-width="2.20719"/>
<path d="M388.274 161.646C390.146 161.646 391.664 160.127 391.664 158.253C391.664 156.38 390.146 154.861 388.274 154.861C386.401 154.861 384.884 156.38 384.884 158.253C384.884 160.127 386.401 161.646 388.274 161.646Z" fill="#C0C5FD" stroke="#81BAFE" stroke-width="2.20719"/>
<path d="M18.12 68V56.48H25.16V58.656H20.296V61.152H24.2V63.328H20.296V68H18.12ZM26.7644 58.16V56.24H28.9404V58.16H26.7644ZM26.7644 68V59.36H28.9404V68H26.7644ZM37.2268 68V63.92C37.2268 63.7227 37.2161 63.472 37.1948 63.168C37.1734 62.8587 37.1068 62.5493 36.9948 62.24C36.8828 61.9307 36.6988 61.672 36.4428 61.464C36.1921 61.256 35.8348 61.152 35.3708 61.152C35.1841 61.152 34.9841 61.1813 34.7708 61.24C34.5574 61.2987 34.3574 61.4133 34.1708 61.584C33.9841 61.7493 33.8294 61.9947 33.7068 62.32C33.5894 62.6453 33.5308 63.0773 33.5308 63.616L32.2828 63.024C32.2828 62.3413 32.4214 61.7013 32.6988 61.104C32.9761 60.5067 33.3921 60.024 33.9468 59.656C34.5068 59.288 35.2108 59.104 36.0588 59.104C36.7361 59.104 37.2881 59.2187 37.7148 59.448C38.1414 59.6773 38.4721 59.968 38.7068 60.32C38.9468 60.672 39.1174 61.04 39.2188 61.424C39.3201 61.8027 39.3814 62.1493 39.4028 62.464C39.4241 62.7787 39.4348 63.008 39.4348 63.152V68H37.2268ZM31.3228 68V59.36H33.2588V62.224H33.5308V68H31.3228ZM43.9106 68.24C43.292 68.24 42.7666 68.1227 42.3346 67.888C41.908 67.648 41.5826 67.3307 41.3586 66.936C41.14 66.536 41.0306 66.096 41.0306 65.616C41.0306 65.216 41.092 64.8507 41.2146 64.52C41.3373 64.1893 41.5346 63.8987 41.8066 63.648C42.084 63.392 42.4546 63.1787 42.9186 63.008C43.2386 62.8907 43.62 62.7867 44.0626 62.696C44.5053 62.6053 45.0066 62.52 45.5666 62.44C46.1266 62.3547 46.7426 62.2613 47.4146 62.16L46.6306 62.592C46.6306 62.08 46.508 61.704 46.2626 61.464C46.0173 61.224 45.6066 61.104 45.0306 61.104C44.7106 61.104 44.3773 61.1813 44.0306 61.336C43.684 61.4907 43.4413 61.7653 43.3026 62.16L41.3346 61.536C41.5533 60.8213 41.964 60.24 42.5666 59.792C43.1693 59.344 43.9906 59.12 45.0306 59.12C45.7933 59.12 46.4706 59.2373 47.0626 59.472C47.6546 59.7067 48.1026 60.112 48.4066 60.688C48.5773 61.008 48.6786 61.328 48.7106 61.648C48.7426 61.968 48.7586 62.3253 48.7586 62.72V68H46.8546V66.224L47.1266 66.592C46.7053 67.1733 46.2493 67.5947 45.7586 67.856C45.2733 68.112 44.6573 68.24 43.9106 68.24ZM44.3746 66.528C44.7746 66.528 45.1106 66.4587 45.3826 66.32C45.66 66.176 45.8786 66.0133 46.0386 65.832C46.204 65.6507 46.316 65.4987 46.3746 65.376C46.4866 65.1413 46.5506 64.8693 46.5666 64.56C46.588 64.2453 46.5986 63.984 46.5986 63.776L47.2386 63.936C46.5933 64.0427 46.0706 64.1333 45.6706 64.208C45.2706 64.2773 44.948 64.3413 44.7026 64.4C44.4573 64.4587 44.2413 64.5227 44.0546 64.592C43.8413 64.6773 43.668 64.7707 43.5346 64.872C43.4066 64.968 43.3106 65.0747 43.2466 65.192C43.188 65.3093 43.1586 65.44 43.1586 65.584C43.1586 65.7813 43.2066 65.952 43.3026 66.096C43.404 66.2347 43.5453 66.3413 43.7266 66.416C43.908 66.4907 44.124 66.528 44.3746 66.528ZM56.7268 68V63.92C56.7268 63.7227 56.7161 63.472 56.6948 63.168C56.6734 62.8587 56.6068 62.5493 56.4948 62.24C56.3828 61.9307 56.1988 61.672 55.9428 61.464C55.6921 61.256 55.3348 61.152 54.8708 61.152C54.6841 61.152 54.4841 61.1813 54.2708 61.24C54.0574 61.2987 53.8574 61.4133 53.6708 61.584C53.4841 61.7493 53.3294 61.9947 53.2068 62.32C53.0894 62.6453 53.0308 63.0773 53.0308 63.616L51.7828 63.024C51.7828 62.3413 51.9214 61.7013 52.1988 61.104C52.4761 60.5067 52.8921 60.024 53.4468 59.656C54.0068 59.288 54.7108 59.104 55.5588 59.104C56.2361 59.104 56.7881 59.2187 57.2148 59.448C57.6414 59.6773 57.9721 59.968 58.2068 60.32C58.4468 60.672 58.6174 61.04 58.7188 61.424C58.8201 61.8027 58.8814 62.1493 58.9028 62.464C58.9241 62.7787 58.9348 63.008 58.9348 63.152V68H56.7268ZM50.8228 68V59.36H52.7588V62.224H53.0308V68H50.8228ZM64.6624 68.24C63.7664 68.24 62.9984 68.04 62.3584 67.64C61.7184 67.24 61.2277 66.696 60.8864 66.008C60.545 65.32 60.3744 64.544 60.3744 63.68C60.3744 62.8053 60.5504 62.024 60.9024 61.336C61.2597 60.648 61.761 60.1067 62.4064 59.712C63.0517 59.3173 63.8144 59.12 64.6944 59.12C65.713 59.12 66.5664 59.3787 67.2544 59.896C67.9477 60.408 68.3904 61.1093 68.5824 62L66.4064 62.576C66.2784 62.128 66.0544 61.7787 65.7344 61.528C65.4197 61.2773 65.0624 61.152 64.6624 61.152C64.2037 61.152 63.8277 61.264 63.5344 61.488C63.241 61.7067 63.025 62.008 62.8864 62.392C62.7477 62.7707 62.6784 63.2 62.6784 63.68C62.6784 64.432 62.8437 65.0427 63.1744 65.512C63.5104 65.976 64.0064 66.208 64.6624 66.208C65.153 66.208 65.5264 66.096 65.7824 65.872C66.0384 65.648 66.2304 65.328 66.3584 64.912L68.5824 65.376C68.337 66.2933 67.873 67 67.1904 67.496C66.5077 67.992 65.665 68.24 64.6624 68.24ZM70.1081 58.16V56.24H72.2841V58.16H70.1081ZM70.1081 68V59.36H72.2841V68H70.1081ZM77.0825 68.24C76.4638 68.24 75.9385 68.1227 75.5065 67.888C75.0798 67.648 74.7545 67.3307 74.5305 66.936C74.3118 66.536 74.2025 66.096 74.2025 65.616C74.2025 65.216 74.2638 64.8507 74.3865 64.52C74.5092 64.1893 74.7065 63.8987 74.9785 63.648C75.2558 63.392 75.6265 63.1787 76.0905 63.008C76.4105 62.8907 76.7918 62.7867 77.2345 62.696C77.6772 62.6053 78.1785 62.52 78.7385 62.44C79.2985 62.3547 79.9145 62.2613 80.5865 62.16L79.8025 62.592C79.8025 62.08 79.6798 61.704 79.4345 61.464C79.1892 61.224 78.7785 61.104 78.2025 61.104C77.8825 61.104 77.5492 61.1813 77.2025 61.336C76.8558 61.4907 76.6132 61.7653 76.4745 62.16L74.5065 61.536C74.7252 60.8213 75.1358 60.24 75.7385 59.792C76.3412 59.344 77.1625 59.12 78.2025 59.12C78.9652 59.12 79.6425 59.2373 80.2345 59.472C80.8265 59.7067 81.2745 60.112 81.5785 60.688C81.7492 61.008 81.8505 61.328 81.8825 61.648C81.9145 61.968 81.9305 62.3253 81.9305 62.72V68H80.0265V66.224L80.2985 66.592C79.8772 67.1733 79.4212 67.5947 78.9305 67.856C78.4452 68.112 77.8292 68.24 77.0825 68.24ZM77.5465 66.528C77.9465 66.528 78.2825 66.4587 78.5545 66.32C78.8318 66.176 79.0505 66.0133 79.2105 65.832C79.3758 65.6507 79.4878 65.4987 79.5465 65.376C79.6585 65.1413 79.7225 64.8693 79.7385 64.56C79.7598 64.2453 79.7705 63.984 79.7705 63.776L80.4105 63.936C79.7652 64.0427 79.2425 64.1333 78.8425 64.208C78.4425 64.2773 78.1198 64.3413 77.8745 64.4C77.6292 64.4587 77.4132 64.5227 77.2265 64.592C77.0132 64.6773 76.8398 64.7707 76.7065 64.872C76.5785 64.968 76.4825 65.0747 76.4185 65.192C76.3598 65.3093 76.3305 65.44 76.3305 65.584C76.3305 65.7813 76.3785 65.952 76.4745 66.096C76.5758 66.2347 76.7172 66.3413 76.8985 66.416C77.0798 66.4907 77.2958 66.528 77.5465 66.528ZM84.1706 68V56.24H86.3466V68H84.1706ZM92.1081 68V56.48H94.2841V68H92.1081ZM102.571 68V63.92C102.571 63.7227 102.56 63.472 102.539 63.168C102.517 62.8587 102.451 62.5493 102.339 62.24C102.227 61.9307 102.043 61.672 101.787 61.464C101.536 61.256 101.179 61.152 100.715 61.152C100.528 61.152 100.328 61.1813 100.115 61.24C99.9012 61.2987 99.7012 61.4133 99.5145 61.584C99.3278 61.7493 99.1732 61.9947 99.0505 62.32C98.9332 62.6453 98.8745 63.0773 98.8745 63.616L97.6265 63.024C97.6265 62.3413 97.7652 61.7013 98.0425 61.104C98.3198 60.5067 98.7358 60.024 99.2905 59.656C99.8505 59.288 100.555 59.104 101.403 59.104C102.08 59.104 102.632 59.2187 103.059 59.448C103.485 59.6773 103.816 59.968 104.051 60.32C104.291 60.672 104.461 61.04 104.562 61.424C104.664 61.8027 104.725 62.1493 104.747 62.464C104.768 62.7787 104.779 63.008 104.779 63.152V68H102.571ZM96.6665 68V59.36H98.6025V62.224H98.8745V68H96.6665ZM110.23 68.24C109.142 68.24 108.262 67.9947 107.59 67.504C106.924 67.008 106.518 66.3093 106.374 65.408L108.598 65.072C108.689 65.4773 108.889 65.7947 109.198 66.024C109.513 66.2533 109.91 66.368 110.39 66.368C110.785 66.368 111.089 66.2933 111.302 66.144C111.516 65.9893 111.622 65.776 111.622 65.504C111.622 65.3333 111.58 65.1973 111.494 65.096C111.409 64.9893 111.217 64.8853 110.918 64.784C110.625 64.6827 110.166 64.5493 109.542 64.384C108.838 64.2027 108.276 64 107.854 63.776C107.433 63.552 107.129 63.2853 106.942 62.976C106.756 62.6613 106.662 62.2827 106.662 61.84C106.662 61.2853 106.804 60.8053 107.086 60.4C107.369 59.9893 107.766 59.6747 108.278 59.456C108.796 59.232 109.404 59.12 110.102 59.12C110.78 59.12 111.38 59.224 111.902 59.432C112.425 59.64 112.846 59.936 113.166 60.32C113.492 60.704 113.692 61.1573 113.766 61.68L111.542 62.08C111.505 61.76 111.366 61.5067 111.126 61.32C110.886 61.1333 110.561 61.024 110.15 60.992C109.75 60.9653 109.428 61.0187 109.182 61.152C108.942 61.2853 108.822 61.4773 108.822 61.728C108.822 61.8773 108.873 62.0027 108.974 62.104C109.081 62.2053 109.297 62.3093 109.622 62.416C109.953 62.5227 110.454 62.6613 111.126 62.832C111.782 63.0027 112.308 63.2027 112.702 63.432C113.102 63.656 113.393 63.928 113.574 64.248C113.756 64.5627 113.846 64.944 113.846 65.392C113.846 66.2773 113.526 66.9733 112.886 67.48C112.246 67.9867 111.361 68.24 110.23 68.24ZM115.764 58.16V56.24H117.94V58.16H115.764ZM115.764 68V59.36H117.94V68H115.764ZM124.035 72.08C123.544 72.08 123.077 72 122.635 71.84C122.192 71.6853 121.795 71.4667 121.443 71.184C121.096 70.9067 120.813 70.5813 120.595 70.208L122.611 69.232C122.749 69.488 122.947 69.6827 123.203 69.816C123.464 69.9493 123.747 70.016 124.051 70.016C124.376 70.016 124.683 69.96 124.971 69.848C125.259 69.7413 125.488 69.5787 125.659 69.36C125.835 69.1467 125.917 68.88 125.907 68.56V66.048H126.179V59.36H128.083V68.592C128.083 68.8053 128.072 69.0053 128.051 69.192C128.035 69.384 128.003 69.5733 127.955 69.76C127.816 70.288 127.557 70.7227 127.179 71.064C126.805 71.4053 126.347 71.6587 125.803 71.824C125.259 71.9947 124.669 72.08 124.035 72.08ZM123.843 68.24C123.048 68.24 122.352 68.04 121.755 67.64C121.157 67.24 120.691 66.696 120.355 66.008C120.024 65.32 119.859 64.544 119.859 63.68C119.859 62.8 120.027 62.0187 120.363 61.336C120.704 60.648 121.181 60.1067 121.795 59.712C122.408 59.3173 123.128 59.12 123.955 59.12C124.776 59.12 125.467 59.32 126.027 59.72C126.587 60.12 127.011 60.664 127.299 61.352C127.587 62.04 127.731 62.816 127.731 63.68C127.731 64.544 127.584 65.32 127.291 66.008C127.003 66.696 126.571 67.24 125.995 67.64C125.419 68.04 124.701 68.24 123.843 68.24ZM124.195 66.304C124.68 66.304 125.067 66.1947 125.355 65.976C125.648 65.7573 125.859 65.4507 125.987 65.056C126.115 64.6613 126.179 64.2027 126.179 63.68C126.179 63.1573 126.115 62.6987 125.987 62.304C125.859 61.9093 125.653 61.6027 125.371 61.384C125.093 61.1653 124.728 61.056 124.275 61.056C123.789 61.056 123.389 61.176 123.075 61.416C122.765 61.6507 122.536 61.968 122.387 62.368C122.237 62.7627 122.163 63.2 122.163 63.68C122.163 64.1653 122.235 64.608 122.379 65.008C122.523 65.4027 122.744 65.7173 123.043 65.952C123.341 66.1867 123.725 66.304 124.195 66.304ZM136.211 68V63.92C136.211 63.7227 136.2 63.472 136.179 63.168C136.158 62.8587 136.091 62.5493 135.979 62.24C135.867 61.9307 135.683 61.672 135.427 61.464C135.176 61.256 134.819 61.152 134.355 61.152C134.168 61.152 133.968 61.1813 133.755 61.24C133.542 61.2987 133.342 61.4133 133.155 61.584C132.968 61.7493 132.814 61.9947 132.691 62.32C132.574 62.6453 132.515 63.0773 132.515 63.616L131.267 63.024C131.267 62.3413 131.406 61.7013 131.683 61.104C131.96 60.5067 132.376 60.024 132.931 59.656C133.491 59.288 134.195 59.104 135.043 59.104C135.72 59.104 136.272 59.2187 136.699 59.448C137.126 59.6773 137.456 59.968 137.691 60.32C137.931 60.672 138.102 61.04 138.203 61.424C138.304 61.8027 138.366 62.1493 138.387 62.464C138.408 62.7787 138.419 63.008 138.419 63.152V68H136.211ZM130.307 68V56.48H132.243V62.4H132.515V68H130.307ZM145.679 68C145.082 68.112 144.495 68.16 143.919 68.144C143.348 68.1333 142.836 68.0347 142.383 67.848C141.935 67.656 141.594 67.3493 141.359 66.928C141.146 66.5333 141.034 66.1333 141.023 65.728C141.012 65.3173 141.007 64.8533 141.007 64.336V56.96H143.183V64.208C143.183 64.544 143.186 64.848 143.191 65.12C143.202 65.3867 143.258 65.6 143.359 65.76C143.551 66.064 143.858 66.2293 144.279 66.256C144.7 66.2827 145.167 66.2613 145.679 66.192V68ZM139.535 61.04V59.36H145.679V61.04H139.535ZM150.98 68.24C149.892 68.24 149.012 67.9947 148.34 67.504C147.674 67.008 147.268 66.3093 147.124 65.408L149.348 65.072C149.439 65.4773 149.639 65.7947 149.948 66.024C150.263 66.2533 150.66 66.368 151.14 66.368C151.535 66.368 151.839 66.2933 152.052 66.144C152.266 65.9893 152.372 65.776 152.372 65.504C152.372 65.3333 152.33 65.1973 152.244 65.096C152.159 64.9893 151.967 64.8853 151.668 64.784C151.375 64.6827 150.916 64.5493 150.292 64.384C149.588 64.2027 149.026 64 148.604 63.776C148.183 63.552 147.879 63.2853 147.692 62.976C147.506 62.6613 147.412 62.2827 147.412 61.84C147.412 61.2853 147.554 60.8053 147.836 60.4C148.119 59.9893 148.516 59.6747 149.028 59.456C149.546 59.232 150.154 59.12 150.852 59.12C151.53 59.12 152.13 59.224 152.652 59.432C153.175 59.64 153.596 59.936 153.916 60.32C154.242 60.704 154.442 61.1573 154.516 61.68L152.292 62.08C152.255 61.76 152.116 61.5067 151.876 61.32C151.636 61.1333 151.311 61.024 150.9 60.992C150.5 60.9653 150.178 61.0187 149.932 61.152C149.692 61.2853 149.572 61.4773 149.572 61.728C149.572 61.8773 149.623 62.0027 149.724 62.104C149.831 62.2053 150.047 62.3093 150.372 62.416C150.703 62.5227 151.204 62.6613 151.876 62.832C152.532 63.0027 153.058 63.2027 153.452 63.432C153.852 63.656 154.143 63.928 154.324 64.248C154.506 64.5627 154.596 64.944 154.596 65.392C154.596 66.2773 154.276 66.9733 153.636 67.48C152.996 67.9867 152.111 68.24 150.98 68.24ZM159.558 68V56.48H161.51L165.318 64.128L169.126 56.48H171.078V68H169.046V61.12L165.702 68H164.934L161.59 61.12V68H159.558ZM175.723 68.24C175.104 68.24 174.579 68.1227 174.147 67.888C173.72 67.648 173.395 67.3307 173.171 66.936C172.952 66.536 172.843 66.096 172.843 65.616C172.843 65.216 172.904 64.8507 173.027 64.52C173.15 64.1893 173.347 63.8987 173.619 63.648C173.896 63.392 174.267 63.1787 174.731 63.008C175.051 62.8907 175.432 62.7867 175.875 62.696C176.318 62.6053 176.819 62.52 177.379 62.44C177.939 62.3547 178.555 62.2613 179.227 62.16L178.443 62.592C178.443 62.08 178.32 61.704 178.075 61.464C177.83 61.224 177.419 61.104 176.843 61.104C176.523 61.104 176.19 61.1813 175.843 61.336C175.496 61.4907 175.254 61.7653 175.115 62.16L173.147 61.536C173.366 60.8213 173.776 60.24 174.379 59.792C174.982 59.344 175.803 59.12 176.843 59.12C177.606 59.12 178.283 59.2373 178.875 59.472C179.467 59.7067 179.915 60.112 180.219 60.688C180.39 61.008 180.491 61.328 180.523 61.648C180.555 61.968 180.571 62.3253 180.571 62.72V68H178.667V66.224L178.939 66.592C178.518 67.1733 178.062 67.5947 177.571 67.856C177.086 68.112 176.47 68.24 175.723 68.24ZM176.187 66.528C176.587 66.528 176.923 66.4587 177.195 66.32C177.472 66.176 177.691 66.0133 177.851 65.832C178.016 65.6507 178.128 65.4987 178.187 65.376C178.299 65.1413 178.363 64.8693 178.379 64.56C178.4 64.2453 178.411 63.984 178.411 63.776L179.051 63.936C178.406 64.0427 177.883 64.1333 177.483 64.208C177.083 64.2773 176.76 64.3413 176.515 64.4C176.27 64.4587 176.054 64.5227 175.867 64.592C175.654 64.6773 175.48 64.7707 175.347 64.872C175.219 64.968 175.123 65.0747 175.059 65.192C175 65.3093 174.971 65.44 174.971 65.584C174.971 65.7813 175.019 65.952 175.115 66.096C175.216 66.2347 175.358 66.3413 175.539 66.416C175.72 66.4907 175.936 66.528 176.187 66.528ZM188.539 68V63.92C188.539 63.7227 188.529 63.472 188.507 63.168C188.486 62.8587 188.419 62.5493 188.307 62.24C188.195 61.9307 188.011 61.672 187.755 61.464C187.505 61.256 187.147 61.152 186.683 61.152C186.497 61.152 186.297 61.1813 186.083 61.24C185.87 61.2987 185.67 61.4133 185.483 61.584C185.297 61.7493 185.142 61.9947 185.019 62.32C184.902 62.6453 184.843 63.0773 184.843 63.616L183.595 63.024C183.595 62.3413 183.734 61.7013 184.011 61.104C184.289 60.5067 184.705 60.024 185.259 59.656C185.819 59.288 186.523 59.104 187.371 59.104C188.049 59.104 188.601 59.2187 189.027 59.448C189.454 59.6773 189.785 59.968 190.019 60.32C190.259 60.672 190.43 61.04 190.531 61.424C190.633 61.8027 190.694 62.1493 190.715 62.464C190.737 62.7787 190.747 63.008 190.747 63.152V68H188.539ZM182.635 68V59.36H184.571V62.224H184.843V68H182.635ZM195.223 68.24C194.604 68.24 194.079 68.1227 193.647 67.888C193.22 67.648 192.895 67.3307 192.671 66.936C192.452 66.536 192.343 66.096 192.343 65.616C192.343 65.216 192.404 64.8507 192.527 64.52C192.65 64.1893 192.847 63.8987 193.119 63.648C193.396 63.392 193.767 63.1787 194.231 63.008C194.551 62.8907 194.932 62.7867 195.375 62.696C195.818 62.6053 196.319 62.52 196.879 62.44C197.439 62.3547 198.055 62.2613 198.727 62.16L197.943 62.592C197.943 62.08 197.82 61.704 197.575 61.464C197.33 61.224 196.919 61.104 196.343 61.104C196.023 61.104 195.69 61.1813 195.343 61.336C194.996 61.4907 194.754 61.7653 194.615 62.16L192.647 61.536C192.866 60.8213 193.276 60.24 193.879 59.792C194.482 59.344 195.303 59.12 196.343 59.12C197.106 59.12 197.783 59.2373 198.375 59.472C198.967 59.7067 199.415 60.112 199.719 60.688C199.89 61.008 199.991 61.328 200.023 61.648C200.055 61.968 200.071 62.3253 200.071 62.72V68H198.167V66.224L198.439 66.592C198.018 67.1733 197.562 67.5947 197.071 67.856C196.586 68.112 195.97 68.24 195.223 68.24ZM195.687 66.528C196.087 66.528 196.423 66.4587 196.695 66.32C196.972 66.176 197.191 66.0133 197.351 65.832C197.516 65.6507 197.628 65.4987 197.687 65.376C197.799 65.1413 197.863 64.8693 197.879 64.56C197.9 64.2453 197.911 63.984 197.911 63.776L198.551 63.936C197.906 64.0427 197.383 64.1333 196.983 64.208C196.583 64.2773 196.26 64.3413 196.015 64.4C195.77 64.4587 195.554 64.5227 195.367 64.592C195.154 64.6773 194.98 64.7707 194.847 64.872C194.719 64.968 194.623 65.0747 194.559 65.192C194.5 65.3093 194.471 65.44 194.471 65.584C194.471 65.7813 194.519 65.952 194.615 66.096C194.716 66.2347 194.858 66.3413 195.039 66.416C195.22 66.4907 195.436 66.528 195.687 66.528ZM205.847 72.08C205.357 72.08 204.89 72 204.447 71.84C204.005 71.6853 203.607 71.4667 203.255 71.184C202.909 70.9067 202.626 70.5813 202.407 70.208L204.423 69.232C204.562 69.488 204.759 69.6827 205.015 69.816C205.277 69.9493 205.559 70.016 205.863 70.016C206.189 70.016 206.495 69.96 206.783 69.848C207.071 69.7413 207.301 69.5787 207.471 69.36C207.647 69.1467 207.73 68.88 207.719 68.56V66.048H207.991V59.36H209.895V68.592C209.895 68.8053 209.885 69.0053 209.863 69.192C209.847 69.384 209.815 69.5733 209.767 69.76C209.629 70.288 209.37 70.7227 208.991 71.064C208.618 71.4053 208.159 71.6587 207.615 71.824C207.071 71.9947 206.482 72.08 205.847 72.08ZM205.655 68.24C204.861 68.24 204.165 68.04 203.567 67.64C202.97 67.24 202.503 66.696 202.167 66.008C201.837 65.32 201.671 64.544 201.671 63.68C201.671 62.8 201.839 62.0187 202.175 61.336C202.517 60.648 202.994 60.1067 203.607 59.712C204.221 59.3173 204.941 59.12 205.767 59.12C206.589 59.12 207.279 59.32 207.839 59.72C208.399 60.12 208.823 60.664 209.111 61.352C209.399 62.04 209.543 62.816 209.543 63.68C209.543 64.544 209.397 65.32 209.103 66.008C208.815 66.696 208.383 67.24 207.807 67.64C207.231 68.04 206.514 68.24 205.655 68.24ZM206.007 66.304C206.493 66.304 206.879 66.1947 207.167 65.976C207.461 65.7573 207.671 65.4507 207.799 65.056C207.927 64.6613 207.991 64.2027 207.991 63.68C207.991 63.1573 207.927 62.6987 207.799 62.304C207.671 61.9093 207.466 61.6027 207.183 61.384C206.906 61.1653 206.541 61.056 206.087 61.056C205.602 61.056 205.202 61.176 204.887 61.416C204.578 61.6507 204.349 61.968 204.199 62.368C204.05 62.7627 203.975 63.2 203.975 63.68C203.975 64.1653 204.047 64.608 204.191 65.008C204.335 65.4027 204.557 65.7173 204.855 65.952C205.154 66.1867 205.538 66.304 206.007 66.304ZM216.152 68.24C215.266 68.24 214.485 68.0507 213.808 67.672C213.136 67.288 212.608 66.7627 212.224 66.096C211.845 65.424 211.656 64.656 211.656 63.792C211.656 62.848 211.842 62.0267 212.216 61.328C212.589 60.6293 213.104 60.088 213.76 59.704C214.416 59.3147 215.17 59.12 216.024 59.12C216.93 59.12 217.701 59.3333 218.336 59.76C218.97 60.1867 219.44 60.7867 219.744 61.56C220.048 62.3333 220.154 63.2427 220.064 64.288H217.912V63.488C217.912 62.608 217.77 61.976 217.488 61.592C217.21 61.2027 216.754 61.008 216.12 61.008C215.378 61.008 214.832 61.2347 214.48 61.688C214.133 62.136 213.96 62.8 213.96 63.68C213.96 64.4853 214.133 65.1093 214.48 65.552C214.832 65.9893 215.346 66.208 216.024 66.208C216.45 66.208 216.816 66.1147 217.12 65.928C217.424 65.7413 217.656 65.472 217.816 65.12L219.992 65.744C219.666 66.5333 219.152 67.1467 218.448 67.584C217.749 68.0213 216.984 68.24 216.152 68.24ZM213.288 64.288V62.672H219.016V64.288H213.288ZM232.036 68V62.896C232.036 62.3253 231.9 61.8827 231.628 61.568C231.361 61.248 230.99 61.088 230.516 61.088C230.212 61.088 229.948 61.16 229.724 61.304C229.5 61.4427 229.324 61.64 229.196 61.896C229.073 62.1467 229.012 62.4373 229.012 62.768L228.1 62.16C228.1 61.568 228.238 61.0453 228.516 60.592C228.798 60.1387 229.174 59.7867 229.644 59.536C230.118 59.28 230.644 59.152 231.22 59.152C232.206 59.152 232.95 59.4453 233.452 60.032C233.958 60.6133 234.212 61.376 234.212 62.32V68H232.036ZM221.62 68V59.36H223.54V62.224H223.812V68H221.62ZM226.836 68V62.896C226.836 62.3253 226.7 61.8827 226.428 61.568C226.161 61.248 225.79 61.088 225.316 61.088C224.862 61.088 224.497 61.2453 224.22 61.56C223.948 61.8693 223.812 62.272 223.812 62.768L222.9 62.128C222.9 61.5627 223.041 61.056 223.324 60.608C223.606 60.16 223.985 59.8053 224.46 59.544C224.94 59.2827 225.476 59.152 226.068 59.152C226.745 59.152 227.3 59.296 227.732 59.584C228.169 59.872 228.492 60.256 228.7 60.736C228.908 61.216 229.012 61.744 229.012 62.32V68H226.836ZM240.152 68.24C239.266 68.24 238.485 68.0507 237.808 67.672C237.136 67.288 236.608 66.7627 236.224 66.096C235.845 65.424 235.656 64.656 235.656 63.792C235.656 62.848 235.842 62.0267 236.216 61.328C236.589 60.6293 237.104 60.088 237.76 59.704C238.416 59.3147 239.17 59.12 240.024 59.12C240.93 59.12 241.701 59.3333 242.336 59.76C242.97 60.1867 243.44 60.7867 243.744 61.56C244.048 62.3333 244.154 63.2427 244.064 64.288H241.912V63.488C241.912 62.608 241.77 61.976 241.488 61.592C241.21 61.2027 240.754 61.008 240.12 61.008C239.378 61.008 238.832 61.2347 238.48 61.688C238.133 62.136 237.96 62.8 237.96 63.68C237.96 64.4853 238.133 65.1093 238.48 65.552C238.832 65.9893 239.346 66.208 240.024 66.208C240.45 66.208 240.816 66.1147 241.12 65.928C241.424 65.7413 241.656 65.472 241.816 65.12L243.992 65.744C243.666 66.5333 243.152 67.1467 242.448 67.584C241.749 68.0213 240.984 68.24 240.152 68.24ZM237.288 64.288V62.672H243.016V64.288H237.288ZM251.524 68V63.92C251.524 63.7227 251.513 63.472 251.492 63.168C251.47 62.8587 251.404 62.5493 251.292 62.24C251.18 61.9307 250.996 61.672 250.74 61.464C250.489 61.256 250.132 61.152 249.668 61.152C249.481 61.152 249.281 61.1813 249.068 61.24C248.854 61.2987 248.654 61.4133 248.468 61.584C248.281 61.7493 248.126 61.9947 248.004 62.32C247.886 62.6453 247.828 63.0773 247.828 63.616L246.58 63.024C246.58 62.3413 246.718 61.7013 246.996 61.104C247.273 60.5067 247.689 60.024 248.244 59.656C248.804 59.288 249.508 59.104 250.356 59.104C251.033 59.104 251.585 59.2187 252.012 59.448C252.438 59.6773 252.769 59.968 253.004 60.32C253.244 60.672 253.414 61.04 253.516 61.424C253.617 61.8027 253.678 62.1493 253.7 62.464C253.721 62.7787 253.732 63.008 253.732 63.152V68H251.524ZM245.62 68V59.36H247.556V62.224H247.828V68H245.62ZM260.992 68C260.394 68.112 259.808 68.16 259.232 68.144C258.661 68.1333 258.149 68.0347 257.696 67.848C257.248 67.656 256.906 67.3493 256.672 66.928C256.458 66.5333 256.346 66.1333 256.336 65.728C256.325 65.3173 256.32 64.8533 256.32 64.336V56.96H258.496V64.208C258.496 64.544 258.498 64.848 258.504 65.12C258.514 65.3867 258.57 65.6 258.672 65.76C258.864 66.064 259.17 66.2293 259.592 66.256C260.013 66.2827 260.48 66.2613 260.992 66.192V68ZM254.848 61.04V59.36H260.992V61.04H254.848Z" fill="white"/>
</g>
<path d="M583.172 54.8242H454.992C450.668 54.8242 447.164 58.3307 447.164 62.6562V215.38C447.164 219.706 450.668 223.212 454.992 223.212H583.172C587.495 223.212 591 219.706 591 215.38V62.6562C591 58.3307 587.495 54.8242 583.172 54.8242Z" fill="white"/>
<path d="M516.211 87.6446C505.921 87.8174 497.202 94.4028 493.866 103.571L481.703 99.1236C481.567 99.5146 481.439 99.9058 481.312 100.297C485.666 85.6981 499.184 75.0469 515.194 75.0469C515.467 75.0469 515.73 75.065 515.994 75.0742L516.211 87.6446Z" fill="#94C5FF"/>
<path d="M502.575 131.623L495.066 142.173C489.866 138.472 485.647 133.46 482.911 127.565C478.93 118.997 478.375 109.247 481.311 100.296C481.438 99.9052 481.566 99.5142 481.703 99.123L493.866 103.571C492.92 106.163 492.402 108.956 492.402 111.875C492.402 120.025 496.411 127.229 502.575 131.623Z" fill="#4896F2"/>
<path d="M537.773 145.548C533.374 148.322 528.438 150.224 523.211 151.107C512.819 152.853 502.155 150.397 493.564 144.275L495.065 142.174L502.573 131.623C506.537 134.461 511.392 136.126 516.638 136.126C521.373 136.126 525.792 134.77 529.519 132.406L537.773 145.548Z" fill="#216BC2"/>
<path d="M556.247 126.81C552.993 135.47 546.983 142.819 539.157 147.75L537.775 145.548L529.519 132.404C536.339 128.129 540.865 120.535 540.865 111.875C540.865 98.486 530.02 87.6346 516.638 87.6346C516.493 87.6346 516.347 87.6346 516.21 87.6437L515.993 75.0733L515.902 69.5157C525.147 69.3611 534.183 72.2353 541.648 77.7019C549.111 83.1686 554.574 90.9273 557.211 99.7957C559.847 108.664 559.511 118.152 556.247 126.801V126.81Z" fill="#2B7BD9"/>
<path opacity="0.8" d="M571.562 179.096H466.735C465.654 179.096 464.778 179.972 464.778 181.054V186.539C464.778 187.621 465.654 188.497 466.735 188.497H571.562C572.643 188.497 573.519 187.621 573.519 186.539V181.054C573.519 179.972 572.643 179.096 571.562 179.096Z" fill="#D8DEF5"/>
<path opacity="0.8" d="M571.562 193.844H466.735C465.654 193.844 464.778 194.72 464.778 195.802V201.287C464.778 202.369 465.654 203.245 466.735 203.245H571.562C572.643 203.245 573.519 202.369 573.519 201.287V195.802C573.519 194.72 572.643 193.844 571.562 193.844Z" fill="#D8DEF5"/>
<path d="M543.109 164.473H495.318C494.237 164.473 493.361 165.349 493.361 166.431V171.95C493.361 173.032 494.237 173.908 495.318 173.908H543.109C544.19 173.908 545.066 173.032 545.066 171.95V166.431C545.066 165.349 544.19 164.473 543.109 164.473Z" fill="#A8BCDF"/>
</g>
<defs>
<filter id="filter0_d_1707_85013" x="5.31226" y="2.98842" width="35.9818" height="35.9882" filterUnits="userSpaceOnUse" color-interpolation-filters="sRGB">
<feFlood flood-opacity="0" result="BackgroundImageFix"/>
<feColorMatrix in="SourceAlpha" type="matrix" values="0 0 0 0 0 0 0 0 0 0 0 0 0 0 0 0 0 0 127 0" result="hardAlpha"/>
<feOffset dx="1.24775" dy="3.74324"/>
<feGaussianBlur stdDeviation="6.23874"/>
<feComposite in2="hardAlpha" operator="out"/>
<feColorMatrix type="matrix" values="0 0 0 0 0 0 0 0 0 0 0 0 0 0 0 0 0 0 0.25 0"/>
<feBlend mode="normal" in2="BackgroundImageFix" result="effect1_dropShadow_1707_85013"/>
<feBlend mode="normal" in="SourceGraphic" in2="effect1_dropShadow_1707_85013" result="shape"/>
</filter>
<filter id="filter1_d_1707_85013" x="23.231" y="2.98842" width="35.9818" height="35.9882" filterUnits="userSpaceOnUse" color-interpolation-filters="sRGB">
<feFlood flood-opacity="0" result="BackgroundImageFix"/>
<feColorMatrix in="SourceAlpha" type="matrix" values="0 0 0 0 0 0 0 0 0 0 0 0 0 0 0 0 0 0 127 0" result="hardAlpha"/>
<feOffset dx="1.24775" dy="3.74324"/>
<feGaussianBlur stdDeviation="6.23874"/>
<feComposite in2="hardAlpha" operator="out"/>
<feColorMatrix type="matrix" values="0 0 0 0 0 0 0 0 0 0 0 0 0 0 0 0 0 0 0.25 0"/>
<feBlend mode="normal" in2="BackgroundImageFix" result="effect1_dropShadow_1707_85013"/>
<feBlend mode="normal" in="SourceGraphic" in2="effect1_dropShadow_1707_85013" result="shape"/>
</filter>
<filter id="filter2_d_1707_85013" x="41.1494" y="2.98842" width="35.9818" height="35.9882" filterUnits="userSpaceOnUse" color-interpolation-filters="sRGB">
<feFlood flood-opacity="0" result="BackgroundImageFix"/>
<feColorMatrix in="SourceAlpha" type="matrix" values="0 0 0 0 0 0 0 0 0 0 0 0 0 0 0 0 0 0 127 0" result="hardAlpha"/>
<feOffset dx="1.24775" dy="3.74324"/>
<feGaussianBlur stdDeviation="6.23874"/>
<feComposite in2="hardAlpha" operator="out"/>
<feColorMatrix type="matrix" values="0 0 0 0 0 0 0 0 0 0 0 0 0 0 0 0 0 0 0.25 0"/>
<feBlend mode="normal" in2="BackgroundImageFix" result="effect1_dropShadow_1707_85013"/>
<feBlend mode="normal" in="SourceGraphic" in2="effect1_dropShadow_1707_85013" result="shape"/>
</filter>
<linearGradient id="paint0_linear_1707_85013" x1="580.006" y1="-2.73227e-05" x2="0.610855" y2="36.9926" gradientUnits="userSpaceOnUse">
<stop stop-color="#0F0C40"/>
<stop offset="1" stop-color="#060424"/>
</linearGradient>
<clipPath id="clip0_1707_85013">
<rect width="591" height="420" fill="white"/>
</clipPath>
</defs>
</svg>
