<svg width="145" height="55" viewBox="0 0 145 55" fill="none" xmlns="http://www.w3.org/2000/svg">
<path d="M41.4182 32.1079C39.8973 30.4087 38.4572 28.7987 36.9975 27.1719C35.7078 28.0856 34.4878 28.5396 33.0616 28.0856C31.0699 27.4505 29.9919 25.4254 30.5963 23.3836C31.1785 21.4086 33.2788 20.286 35.2789 20.8794C37.2343 21.4615 38.4683 23.6733 37.7441 25.5953C37.3931 26.5257 37.6466 26.9797 38.2845 27.5981C39.304 28.5842 40.265 29.6539 41.1007 30.7959C41.7024 31.6205 42.2734 31.9965 43.3625 31.9575C46.0283 31.8572 48.5353 34.0244 48.9866 36.6066C49.5019 39.5621 47.9448 42.3142 45.2205 43.2529C42.4043 44.2251 39.2733 42.9214 38.031 40.2585C36.7524 37.523 37.7357 34.2779 40.3096 32.7319C40.6021 32.5564 40.9029 32.3948 41.4182 32.1051V32.1079Z" fill="url(#paint0_linear_1707_84975)"/>
<path d="M36.9835 15.4307C35.3344 15.7566 33.6965 16.0853 32.0558 16.4C31.0781 16.5894 30.5544 16.9543 30.5823 18.1633C30.6268 20.0547 28.9555 21.5394 27.0836 21.5784C24.9638 21.6229 23.3733 20.2887 23.1114 18.2524C22.8746 16.4056 24.2117 14.5755 26.0613 14.1688C27.5655 13.8373 28.8246 14.283 29.7522 15.4529C30.2341 16.0602 30.6352 16.0797 31.3316 15.907C33.0726 15.4724 34.8386 15.127 36.6102 14.8513C37.1645 14.7649 37.4431 14.5978 37.6882 14.1075C38.9361 11.6256 41.237 10.4556 43.9557 10.8596C46.3374 11.2161 48.251 13.2523 48.6856 15.8986C49.1703 18.8541 46.978 21.7761 43.8276 22.3778C40.9863 22.9182 37.7913 20.7427 37.276 17.8959C37.1478 17.1856 37.1005 16.4613 36.9807 15.4279L36.9835 15.4307Z" fill="url(#paint1_linear_1707_84975)"/>
<path d="M29.1143 44.2437C29.7828 42.1461 30.4123 40.2548 30.9527 38.3383C31.0112 38.1322 30.5962 37.6865 30.3065 37.5054C28.9499 36.6614 28.2201 35.4775 28.326 33.8786C28.4234 32.419 29.156 31.2908 30.5126 30.7198C31.9165 30.1293 33.3177 30.2435 34.5071 31.2797C35.7188 32.3354 36.1227 33.7003 35.6659 35.238C35.223 36.7338 34.1923 37.6614 32.6213 37.8285C31.9834 37.8954 31.7355 38.1712 31.5516 38.7338C30.9639 40.5445 30.2953 42.33 29.7299 44.149C29.6212 44.4999 29.7299 45.0264 29.9304 45.3523C32.3956 49.2855 30.0224 54.216 25.3928 54.4889C22.6824 54.6477 20.0111 52.9931 19.3787 49.5557C18.8328 46.5947 20.9693 43.5946 23.8245 42.9567C25.6964 42.5389 27.2869 43.1322 29.1115 44.2465L29.1143 44.2437Z" fill="url(#paint2_linear_1707_84975)"/>
<path d="M12.4932 39.6335C14.5712 39.1572 16.5518 38.745 18.4989 38.2101C18.7356 38.1461 18.8944 37.4274 18.9167 37.0012C18.9975 35.38 19.9195 34.0931 21.4711 33.5666C22.9195 33.0736 24.5435 33.5248 25.5185 34.6892C26.9029 36.3438 26.6828 38.7255 25.0199 40.0764C23.4126 41.3829 21.0616 41.1489 19.7524 39.4887C19.3123 38.9316 18.9362 38.8592 18.2565 39.0347C16.5908 39.4636 14.8972 39.8285 13.1952 40.057C12.4403 40.1572 12.0615 40.4079 11.7216 41.0625C10.2341 43.9261 6.8469 44.9735 3.97499 43.5138C1.57941 42.2965 0.35934 39.4859 1.06966 36.8229C1.74376 34.2936 4.33711 32.4106 6.93046 32.5722C9.60181 32.7365 11.8943 34.7978 12.301 37.4246C12.3957 38.0318 12.4124 38.653 12.496 39.6308L12.4932 39.6335Z" fill="url(#paint3_linear_1707_84975)"/>
<path d="M20.4065 10.7563C19.7603 12.8204 19.1335 14.7174 18.6126 16.6422C18.5513 16.8706 19.0082 17.3553 19.3285 17.5503C21.7547 19.0294 21.8717 22.4835 19.5179 23.9933C18.3452 24.7481 16.4733 24.737 15.3814 23.971C14.0833 23.0601 13.4399 21.4027 13.8243 19.957C14.2532 18.3414 15.412 17.3497 17.0165 17.0851C17.3536 17.0294 17.7909 16.6812 17.9107 16.3664C18.6043 14.5279 19.2477 12.67 19.8327 10.7925C19.9386 10.4527 19.7798 9.93735 19.5736 9.60866C17.5318 6.35234 18.9079 2.10716 22.4483 0.836945C25.5765 -0.285633 29.0612 1.49712 29.9888 4.69494C30.9359 7.96796 28.9443 11.2326 25.6322 12.0182C23.7798 12.4555 22.245 11.7953 20.4065 10.7591V10.7563Z" fill="url(#paint4_linear_1707_84975)"/>
<path d="M8.04159 22.9004C9.53744 24.5077 10.8996 26.0147 12.3314 27.4548C12.479 27.6024 13.0779 27.4492 13.3759 27.2765C15.2618 26.1902 17.5459 26.7668 18.5988 28.6387C19.6574 30.5189 18.9833 32.8058 17.0724 33.817C15.6852 34.5524 14.1336 34.3685 12.9107 33.3267C11.8077 32.3852 11.2895 30.7529 11.8355 29.3685C12.1754 28.5077 11.9553 28.0175 11.348 27.4074C10.2756 26.3294 9.22824 25.1985 8.33686 23.9701C7.77139 23.1901 7.18086 22.9645 6.27277 22.9784C3.71284 23.0146 1.54568 21.3962 0.785225 18.9895C-0.142365 16.0452 1.25598 12.9922 4.05825 11.8557C6.90787 10.6997 10.1252 11.9365 11.4678 14.7053C12.777 17.4101 11.777 20.6664 9.16139 22.218C8.89676 22.3739 8.63492 22.5383 8.03881 22.8976L8.04159 22.9004Z" fill="url(#paint5_linear_1707_84975)"/>
<path d="M37.9699 7.7995C37.9754 8.89979 37.1788 9.69924 36.0952 9.68253C35.0924 9.6686 34.3486 8.86915 34.3486 7.80228C34.3486 6.69363 35.1592 5.84125 36.1843 5.87189C37.1453 5.90254 37.9699 6.78834 37.9726 7.79671L37.9699 7.7995Z" fill="url(#paint6_linear_1707_84975)"/>
<path d="M12.468 47.2047C12.454 46.1462 13.1978 45.3244 14.2006 45.2826C15.1978 45.2408 16.0975 46.1545 16.092 47.1991C16.0864 48.1963 15.2284 49.0793 14.2646 49.0821C13.312 49.0821 12.4791 48.2158 12.468 47.2047Z" fill="url(#paint7_linear_1707_84975)"/>
<path d="M33.4541 47.1713C33.4513 46.1211 34.2452 45.2799 35.2508 45.2715C36.2341 45.2632 37.1004 46.1239 37.1199 47.1295C37.1422 48.2075 36.287 49.1072 35.2508 49.0961C34.2926 49.085 33.4569 48.1908 33.4541 47.1713Z" fill="url(#paint8_linear_1707_84975)"/>
<path d="M46.3068 29.2989C45.1508 29.2878 44.538 28.661 44.5352 27.4883C44.5324 26.3379 45.1814 25.661 46.2873 25.6582C47.4321 25.6554 48.1592 26.3908 48.1452 27.5385C48.1313 28.661 47.4544 29.3101 46.3068 29.2989Z" fill="url(#paint9_linear_1707_84975)"/>
<path d="M15.1865 7.80715C15.1865 8.90187 14.4483 9.66511 13.3898 9.67068C12.3536 9.67347 11.6126 8.89351 11.6182 7.80158C11.6238 6.72635 12.4093 5.88233 13.3926 5.89069C14.387 5.89904 15.1865 6.75421 15.1865 7.80715Z" fill="url(#paint10_linear_1707_84975)"/>
<path d="M4.92151 27.507C4.92151 28.638 4.31983 29.2508 3.21118 29.2508C2.1276 29.2508 1.46464 28.599 1.4535 27.5265C1.44235 26.4151 2.16103 25.6769 3.24182 25.6936C4.29476 25.7076 4.92151 26.3872 4.92151 27.5098V27.507Z" fill="url(#paint11_linear_1707_84975)"/>
<path d="M68.0488 39.8704C63.6035 39.8704 60.5474 36.66 60.5474 31.9677C60.5474 27.2446 63.5418 23.9724 67.9253 23.9724C72.2163 23.9724 75.0254 26.9359 75.0254 31.4121V32.4925L63.3566 32.5234C63.5727 35.703 65.2396 37.4626 68.1106 37.4626C70.3641 37.4626 71.8458 36.5365 72.3397 34.8078H75.0563C74.3154 38.0491 71.7841 39.8704 68.0488 39.8704ZM67.9253 26.4111C65.394 26.4111 63.7888 27.9237 63.4183 30.5786H72.1237C72.1237 28.0781 70.4875 26.4111 67.9253 26.4111ZM82.4649 39.5H79.5631V16.7797H82.4649V39.5ZM86.7365 35.1165H89.5148C89.5148 36.66 90.6879 37.5861 92.6018 37.5861C94.6392 37.5861 95.8123 36.7526 95.8123 35.3634C95.8123 34.3447 95.3184 33.7273 93.744 33.326L91.0892 32.7086C88.4035 32.0603 87.1378 30.7329 87.1378 28.5103C87.1378 25.732 89.4839 23.9724 92.8179 23.9724C96.121 23.9724 98.2819 25.8246 98.3436 28.6955H95.5653C95.5036 27.1829 94.4849 26.2259 92.7253 26.2259C90.9039 26.2259 89.8852 27.0285 89.8852 28.4177C89.8852 29.4364 90.6261 30.1155 92.1079 30.486L94.7627 31.1342C97.3249 31.7516 98.5906 32.9247 98.5906 35.1782C98.5906 38.0491 96.121 39.8704 92.5401 39.8704C88.99 39.8704 86.7365 37.9874 86.7365 35.1165ZM104.463 39.5H101.315L109.464 17.181H112.829L121.01 39.5H117.83L115.824 33.9434H106.439L104.463 39.5ZM110.761 21.9967L107.365 31.3194H114.928L111.502 21.9967C111.347 21.5645 111.193 21.0397 111.131 20.7002C111.07 21.0089 110.915 21.5337 110.761 21.9967Z" fill="#1946A2"/>
<path d="M126.137 20.8236C125.088 20.8236 124.224 19.9593 124.224 18.9097C124.224 17.8293 125.088 16.9958 126.137 16.9958C127.187 16.9958 128.051 17.8293 128.051 18.9097C128.051 19.9593 127.187 20.8236 126.137 20.8236ZM124.717 39.5V24.4046H127.619V39.5H124.717Z" fill="#F17630"/>
<defs>
<linearGradient id="paint0_linear_1707_84975" x1="32.1401" y1="22.0175" x2="49.1137" y2="41.3906" gradientUnits="userSpaceOnUse">
<stop stop-color="#0E3C99"/>
<stop offset="1" stop-color="#326BFD"/>
</linearGradient>
<linearGradient id="paint1_linear_1707_84975" x1="25.4389" y1="11.444" x2="30.5888" y2="27.2689" gradientUnits="userSpaceOnUse">
<stop stop-color="#0E3C99"/>
<stop offset="1" stop-color="#326BFD"/>
</linearGradient>
<linearGradient id="paint2_linear_1707_84975" x1="20.8119" y1="31.7328" x2="38.8795" y2="49.0603" gradientUnits="userSpaceOnUse">
<stop stop-color="#0E3C99"/>
<stop offset="1" stop-color="#326BFD"/>
</linearGradient>
<linearGradient id="paint3_linear_1707_84975" x1="3.21332" y1="33.2211" x2="8.32318" y2="48.9537" gradientUnits="userSpaceOnUse">
<stop stop-color="#0E3C99"/>
<stop offset="1" stop-color="#326BFD"/>
</linearGradient>
<linearGradient id="paint4_linear_1707_84975" x1="15.2285" y1="1.86481" x2="33.2341" y2="19.1464" gradientUnits="userSpaceOnUse">
<stop stop-color="#0E3C99"/>
<stop offset="1" stop-color="#326BFD"/>
</linearGradient>
<linearGradient id="paint5_linear_1707_84975" x1="2.20618" y1="12.7197" x2="19.1741" y2="32.0399" gradientUnits="userSpaceOnUse">
<stop stop-color="#0E3C99"/>
<stop offset="1" stop-color="#326BFD"/>
</linearGradient>
<linearGradient id="paint6_linear_1707_84975" x1="34.6811" y1="6.08738" x2="37.425" y2="9.73489" gradientUnits="userSpaceOnUse">
<stop stop-color="#0E3C99"/>
<stop offset="1" stop-color="#326BFD"/>
</linearGradient>
<linearGradient id="paint7_linear_1707_84975" x1="12.8002" y1="45.4969" x2="15.5341" y2="49.1417" gradientUnits="userSpaceOnUse">
<stop stop-color="#0E3C99"/>
<stop offset="1" stop-color="#326BFD"/>
</linearGradient>
<linearGradient id="paint8_linear_1707_84975" x1="33.7904" y1="45.4885" x2="36.5374" y2="49.17" gradientUnits="userSpaceOnUse">
<stop stop-color="#0E3C99"/>
<stop offset="1" stop-color="#326BFD"/>
</linearGradient>
<linearGradient id="paint9_linear_1707_84975" x1="44.8663" y1="25.8648" x2="47.4548" y2="29.4535" gradientUnits="userSpaceOnUse">
<stop stop-color="#0E3C99"/>
<stop offset="1" stop-color="#326BFD"/>
</linearGradient>
<linearGradient id="paint10_linear_1707_84975" x1="11.9455" y1="6.10512" x2="14.672" y2="9.70363" gradientUnits="userSpaceOnUse">
<stop stop-color="#0E3C99"/>
<stop offset="1" stop-color="#326BFD"/>
</linearGradient>
<linearGradient id="paint11_linear_1707_84975" x1="1.77152" y1="25.8952" x2="4.31389" y2="29.3607" gradientUnits="userSpaceOnUse">
<stop stop-color="#0E3C99"/>
<stop offset="1" stop-color="#326BFD"/>
</linearGradient>
</defs>
</svg>
