<svg width="144" height="55" viewBox="0 0 144 55" fill="none" xmlns="http://www.w3.org/2000/svg">
<path d="M40.9182 32.4907C39.3973 30.7915 37.9572 29.1815 36.4975 27.5547C35.2078 28.4684 33.9878 28.9224 32.5616 28.4684C30.5699 27.8333 29.4919 25.8082 30.0963 23.7664C30.6785 21.7914 32.7788 20.6688 34.7789 21.2622C36.7343 21.8443 37.9683 24.0561 37.2441 25.9781C36.8931 26.9085 37.1466 27.3625 37.7845 27.9809C38.804 28.967 39.765 30.0367 40.6007 31.1787C41.2024 32.0033 41.7734 32.3793 42.8625 32.3403C45.5283 32.24 48.0353 34.4072 48.4866 36.9894C49.0019 39.9449 47.4448 42.697 44.7205 43.6357C41.9043 44.6079 38.7733 43.3043 37.531 40.6413C36.2524 37.9059 37.2357 34.6607 39.8096 33.1147C40.1021 32.9392 40.4029 32.7776 40.9182 32.488V32.4907Z" fill="url(#paint0_linear_2018_142222)"/>
<path d="M36.4832 15.8135C34.8342 16.1394 33.1963 16.4681 31.5556 16.7828C30.5779 16.9723 30.0542 17.3372 30.082 18.5461C30.1266 20.4375 28.4553 21.9222 26.5834 21.9612C24.4636 22.0058 22.873 20.6715 22.6112 18.6352C22.3744 16.7884 23.7115 14.9583 25.5611 14.5516C27.0653 14.2201 28.3243 14.6658 29.2519 15.8357C29.7338 16.443 30.135 16.4625 30.8313 16.2898C32.5723 15.8552 34.3384 15.5098 36.11 15.2341C36.6643 15.1477 36.9428 14.9806 37.188 14.4903C38.4359 12.0084 40.7368 10.8385 43.4555 11.2424C45.8371 11.5989 47.7508 13.6352 48.1853 16.2814C48.67 19.2369 46.4778 22.159 43.3273 22.7606C40.4861 23.301 37.291 21.1255 36.7757 18.2787C36.6476 17.5684 36.6002 16.8441 36.4804 15.8107L36.4832 15.8135Z" fill="url(#paint1_linear_2018_142222)"/>
<path d="M28.6145 44.6265C29.283 42.529 29.9126 40.6376 30.453 38.7211C30.5115 38.515 30.0964 38.0693 29.8067 37.8882C28.4502 37.0442 27.7203 35.8603 27.8262 34.2614C27.9237 32.8018 28.6563 31.6737 30.0129 31.1026C31.4168 30.5121 32.8179 30.6263 34.0073 31.6625C35.2191 32.7182 35.623 34.0832 35.1661 35.6208C34.7232 37.1166 33.6926 38.0442 32.1215 38.2114C31.4836 38.2782 31.2357 38.554 31.0519 39.1167C30.4641 40.9273 29.7956 42.7128 29.2301 44.5318C29.1215 44.8828 29.2301 45.4092 29.4307 45.7351C31.8959 49.6683 29.5226 54.5988 24.893 54.8718C22.1827 55.0305 19.5113 53.3759 18.879 49.9385C18.333 46.9775 20.4695 43.9774 23.3247 43.3396C25.1966 42.9217 26.7872 43.515 28.6117 44.6293L28.6145 44.6265Z" fill="url(#paint2_linear_2018_142222)"/>
<path d="M11.9932 40.0164C14.0712 39.54 16.0518 39.1278 17.9989 38.5929C18.2356 38.5289 18.3944 37.8102 18.4167 37.384C18.4975 35.7628 19.4195 34.4759 20.9711 33.9494C22.4195 33.4564 24.0435 33.9076 25.0185 35.072C26.4029 36.7266 26.1828 39.1083 24.5199 40.4593C22.9126 41.7657 20.5616 41.5317 19.2524 39.8715C18.8123 39.3144 18.4362 39.242 17.7565 39.4175C16.0908 39.8464 14.3972 40.2113 12.6952 40.4398C11.9403 40.54 11.5615 40.7907 11.2216 41.4453C9.73413 44.3089 6.3469 45.3563 3.47499 43.8966C1.07941 42.6793 -0.14066 39.8687 0.569656 37.2057C1.24376 34.6765 3.83711 32.7934 6.43046 32.955C9.10181 33.1193 11.3943 35.1806 11.801 37.8074C11.8957 38.4147 11.9124 39.0358 11.996 40.0136L11.9932 40.0164Z" fill="url(#paint3_linear_2018_142222)"/>
<path d="M19.9065 11.1391C19.2603 13.2032 18.6335 15.1002 18.1126 17.025C18.0513 17.2534 18.5082 17.7381 18.8285 17.9331C21.2547 19.4122 21.3717 22.8663 19.0179 24.3761C17.8452 25.131 15.9733 25.1198 14.8814 24.3538C13.5833 23.4429 12.9399 21.7855 13.3243 20.3398C13.7532 18.7242 14.912 17.7325 16.5165 17.4679C16.8536 17.4122 17.2909 17.064 17.4107 16.7492C18.1043 14.9108 18.7477 13.0528 19.3327 11.1753C19.4386 10.8355 19.2798 10.3202 19.0736 9.99147C17.0318 6.73516 18.4079 2.48997 21.9483 1.21976C25.0765 0.0971791 28.5612 1.87993 29.4888 5.07775C30.4359 8.35078 28.4443 11.6154 25.1322 12.401C23.2798 12.8383 21.745 12.1781 19.9065 11.1419V11.1391Z" fill="url(#paint4_linear_2018_142222)"/>
<path d="M7.54159 23.2832C9.03744 24.8905 10.3996 26.3975 11.8314 27.8376C11.979 27.9852 12.5779 27.832 12.8759 27.6593C14.7618 26.573 17.0459 27.1496 18.0988 29.0215C19.1574 30.9017 18.4833 33.1887 16.5724 34.1998C15.1852 34.9352 13.6336 34.7514 12.4107 33.7096C11.3077 32.768 10.7895 31.1357 11.3355 29.7513C11.6754 28.8906 11.4553 28.4003 10.848 27.7903C9.77561 26.7122 8.72824 25.5813 7.83686 24.3529C7.27139 23.5729 6.68086 23.3473 5.77277 23.3612C3.21284 23.3974 1.04568 21.779 0.285225 19.3723C-0.642365 16.428 0.755983 13.375 3.55825 12.2385C6.40787 11.0825 9.62519 12.3193 10.9678 15.0881C12.277 17.7929 11.277 21.0492 8.66139 22.6008C8.39676 22.7568 8.13492 22.9211 7.53881 23.2804L7.54159 23.2832Z" fill="url(#paint5_linear_2018_142222)"/>
<path d="M37.4699 8.18231C37.4754 9.2826 36.6788 10.0821 35.5952 10.0653C34.5924 10.0514 33.8486 9.25196 33.8486 8.18509C33.8486 7.07644 34.6592 6.22407 35.6843 6.25471C36.6453 6.28535 37.4699 7.17115 37.4726 8.17952L37.4699 8.18231Z" fill="url(#paint6_linear_2018_142222)"/>
<path d="M11.968 47.5875C11.954 46.529 12.6978 45.7072 13.7006 45.6654C14.6978 45.6237 15.5975 46.5373 15.592 47.5819C15.5864 48.5791 14.7284 49.4622 13.7646 49.4649C12.812 49.4649 11.9791 48.5986 11.968 47.5875Z" fill="url(#paint7_linear_2018_142222)"/>
<path d="M32.9541 47.5541C32.9513 46.504 33.7452 45.6627 34.7508 45.6544C35.7341 45.646 36.6004 46.5067 36.6199 47.5123C36.6422 48.5903 35.787 49.4901 34.7508 49.4789C33.7926 49.4678 32.9569 48.5736 32.9541 47.5541Z" fill="url(#paint8_linear_2018_142222)"/>
<path d="M45.8068 29.6817C44.6508 29.6706 44.038 29.0438 44.0352 27.8711C44.0324 26.7207 44.6814 26.0438 45.7873 26.041C46.9321 26.0382 47.6592 26.7736 47.6452 27.9213C47.6313 29.0439 46.9544 29.6929 45.8068 29.6817Z" fill="url(#paint9_linear_2018_142222)"/>
<path d="M14.6865 8.18996C14.6865 9.28468 13.9483 10.0479 12.8898 10.0535C11.8536 10.0563 11.1126 9.27633 11.1182 8.18439C11.1238 7.10917 11.9093 6.26514 12.8926 6.2735C13.887 6.28186 14.6865 7.13702 14.6865 8.18996Z" fill="url(#paint10_linear_2018_142222)"/>
<path d="M4.42127 27.8898C4.42127 29.0208 3.81959 29.6336 2.71094 29.6336C1.62736 29.6336 0.964395 28.9818 0.953253 27.9093C0.942111 26.7979 1.66078 26.0597 2.74158 26.0764C3.79452 26.0904 4.42127 26.77 4.42127 27.8926V27.8898Z" fill="url(#paint11_linear_2018_142222)"/>
<path d="M67.5488 40.2533C63.1035 40.2533 60.0474 37.0428 60.0474 32.3505C60.0474 27.6274 63.0418 24.3552 67.4253 24.3552C71.7163 24.3552 74.5254 27.3187 74.5254 31.7949V32.8753L62.8566 32.9062C63.0727 36.0858 64.7396 37.8454 67.6106 37.8454C69.8641 37.8454 71.3458 36.9193 71.8397 35.1906H74.5563C73.8154 38.4319 71.2841 40.2533 67.5488 40.2533ZM67.4253 26.7939C64.894 26.7939 63.2888 28.3066 62.9183 30.9614H71.6237C71.6237 28.4609 69.9875 26.7939 67.4253 26.7939ZM81.9649 39.8828H79.0631V17.1625H81.9649V39.8828ZM86.2365 35.4993H89.0148C89.0148 37.0428 90.1879 37.9689 92.1018 37.9689C94.1392 37.9689 95.3123 37.1354 95.3123 35.7462C95.3123 34.7275 94.8184 34.1101 93.244 33.7088L90.5892 33.0914C87.9035 32.4431 86.6378 31.1157 86.6378 28.8931C86.6378 26.1148 88.9839 24.3552 92.3179 24.3552C95.621 24.3552 97.7819 26.2074 97.8436 29.0783H95.0653C95.0036 27.5657 93.9849 26.6087 92.2253 26.6087C90.4039 26.6087 89.3852 27.4113 89.3852 28.8005C89.3852 29.8192 90.1261 30.4983 91.6079 30.8688L94.2627 31.517C96.8249 32.1344 98.0906 33.3075 98.0906 35.561C98.0906 38.4319 95.621 40.2533 92.0401 40.2533C88.49 40.2533 86.2365 38.3702 86.2365 35.4993ZM103.963 39.8828H100.815L108.964 17.5638H112.329L120.51 39.8828H117.33L115.324 34.3262H105.939L103.963 39.8828ZM110.261 22.3795L106.865 31.7023H114.428L111.002 22.3795C110.847 21.9473 110.693 21.4226 110.631 21.083C110.57 21.3917 110.415 21.9165 110.261 22.3795Z" fill="#1946A2"/>
<path d="M125.637 21.2065C124.588 21.2065 123.724 20.3421 123.724 19.2925C123.724 18.2121 124.588 17.3786 125.637 17.3786C126.687 17.3786 127.551 18.2121 127.551 19.2925C127.551 20.3421 126.687 21.2065 125.637 21.2065ZM124.217 39.8828V24.7874H127.119V39.8828H124.217Z" fill="#F17630"/>
<defs>
<linearGradient id="paint0_linear_2018_142222" x1="31.6401" y1="22.4003" x2="48.6137" y2="41.7734" gradientUnits="userSpaceOnUse">
<stop stop-color="#0E3C99"/>
<stop offset="1" stop-color="#326BFD"/>
</linearGradient>
<linearGradient id="paint1_linear_2018_142222" x1="24.9387" y1="11.8268" x2="30.0886" y2="27.6517" gradientUnits="userSpaceOnUse">
<stop stop-color="#0E3C99"/>
<stop offset="1" stop-color="#326BFD"/>
</linearGradient>
<linearGradient id="paint2_linear_2018_142222" x1="20.3122" y1="32.1156" x2="38.3797" y2="49.4431" gradientUnits="userSpaceOnUse">
<stop stop-color="#0E3C99"/>
<stop offset="1" stop-color="#326BFD"/>
</linearGradient>
<linearGradient id="paint3_linear_2018_142222" x1="2.71332" y1="33.6039" x2="7.82318" y2="49.3365" gradientUnits="userSpaceOnUse">
<stop stop-color="#0E3C99"/>
<stop offset="1" stop-color="#326BFD"/>
</linearGradient>
<linearGradient id="paint4_linear_2018_142222" x1="14.7285" y1="2.24762" x2="32.7341" y2="19.5292" gradientUnits="userSpaceOnUse">
<stop stop-color="#0E3C99"/>
<stop offset="1" stop-color="#326BFD"/>
</linearGradient>
<linearGradient id="paint5_linear_2018_142222" x1="1.70618" y1="13.1026" x2="18.6741" y2="32.4227" gradientUnits="userSpaceOnUse">
<stop stop-color="#0E3C99"/>
<stop offset="1" stop-color="#326BFD"/>
</linearGradient>
<linearGradient id="paint6_linear_2018_142222" x1="34.1811" y1="6.47019" x2="36.925" y2="10.1177" gradientUnits="userSpaceOnUse">
<stop stop-color="#0E3C99"/>
<stop offset="1" stop-color="#326BFD"/>
</linearGradient>
<linearGradient id="paint7_linear_2018_142222" x1="12.3002" y1="45.8797" x2="15.0341" y2="49.5245" gradientUnits="userSpaceOnUse">
<stop stop-color="#0E3C99"/>
<stop offset="1" stop-color="#326BFD"/>
</linearGradient>
<linearGradient id="paint8_linear_2018_142222" x1="33.2904" y1="45.8713" x2="36.0374" y2="49.5529" gradientUnits="userSpaceOnUse">
<stop stop-color="#0E3C99"/>
<stop offset="1" stop-color="#326BFD"/>
</linearGradient>
<linearGradient id="paint9_linear_2018_142222" x1="44.3663" y1="26.2476" x2="46.9548" y2="29.8363" gradientUnits="userSpaceOnUse">
<stop stop-color="#0E3C99"/>
<stop offset="1" stop-color="#326BFD"/>
</linearGradient>
<linearGradient id="paint10_linear_2018_142222" x1="11.4455" y1="6.48793" x2="14.172" y2="10.0864" gradientUnits="userSpaceOnUse">
<stop stop-color="#0E3C99"/>
<stop offset="1" stop-color="#326BFD"/>
</linearGradient>
<linearGradient id="paint11_linear_2018_142222" x1="1.27127" y1="26.278" x2="3.81365" y2="29.7435" gradientUnits="userSpaceOnUse">
<stop stop-color="#0E3C99"/>
<stop offset="1" stop-color="#326BFD"/>
</linearGradient>
</defs>
</svg>
