<svg width="20" height="16" viewBox="0 0 20 16" fill="none" xmlns="http://www.w3.org/2000/svg">
<path d="M16.9998 0.0683608L2.9998 0.0683596C1.5098 0.0683595 0.299805 1.27836 0.299804 2.76836L0.299804 12.7684C0.299803 14.2584 1.5098 15.4684 2.9998 15.4684L16.9998 15.4684C18.4898 15.4684 19.6998 14.2584 19.6998 12.7684L19.6998 2.76836C19.6998 1.27836 18.4898 0.068361 16.9998 0.0683608ZM2.9998 1.46836L16.9998 1.46836C17.7198 1.46836 18.2998 2.04836 18.2998 2.76836L18.2998 3.14836C18.0898 3.04836 17.8498 3.03836 17.6398 3.16836L10.7798 7.30836C10.3198 7.64836 9.6798 7.64836 9.1598 7.26836L2.3598 3.16836C2.1498 3.03836 1.9098 3.04836 1.6998 3.14836L1.6998 2.76836C1.6998 2.04836 2.2798 1.46836 2.9998 1.46836ZM16.9998 14.0684L2.9998 14.0684C2.2798 14.0684 1.6998 13.4884 1.6998 12.7684L1.6998 4.40836L8.3798 8.42836C8.8598 8.78836 9.4398 8.96836 10.0198 8.96836C10.5998 8.96836 11.1198 8.79836 11.5598 8.46836L18.2998 4.40836L18.2998 12.7684C18.2998 13.4884 17.7198 14.0684 16.9998 14.0684Z" fill="#4A5BF0"/>
</svg>
