<svg width="97" height="100" viewBox="0 0 97 100" fill="none" xmlns="http://www.w3.org/2000/svg">
<path d="M55.8471 3.09999C51.5217 -0.249473 45.4784 -0.249479 41.1529 3.09999L0.5 34.5801L96.5 34.5802L55.8471 3.09999Z" fill="#CBE3FF"/>
<path d="M48.5 71.7496L96.5 34.5802L0.5 34.5801L48.5 71.7496Z" fill="#CBE3FF"/>
<rect x="30.9492" y="47.4102" width="36" height="36" rx="2" fill="#0051B0"/>
<rect x="1" y="-1" width="20" height="22" rx="9" transform="matrix(1 0 0 -1 37.9492 56.4102)" stroke="#0051B0" stroke-width="2"/>
<circle cx="48.5" cy="58.4102" r="3" fill="#70B1FD"/>
<path d="M0.718873 34.4102L0.5 34.5796V34.4102H0.718873Z" fill="#DDEDFF"/>
<path d="M96.2811 34.4102L96.5 34.5797L55.8471 66.0598C51.5217 69.4093 45.4784 69.4093 41.1529 66.0598L0.5 34.5796V87.4102C0.5 94.0376 5.87258 99.4102 12.5 99.4102H84.5C91.1274 99.4102 96.5 94.0376 96.5 87.4102V34.5797V34.4102H96.2811Z" fill="#DDEDFF"/>
</svg>
