<svg width="22" height="22" viewBox="0 0 22 22" fill="none" xmlns="http://www.w3.org/2000/svg">
<path d="M10.2391 14.8965C9.01993 14.8965 8.02075 13.8699 8.02075 12.6049C8.02075 12.229 8.33242 11.9174 8.70825 11.9174C9.08409 11.9174 9.39575 12.229 9.39575 12.6049C9.39575 13.109 9.7716 13.5215 10.2391 13.5215H11.9624C12.3199 13.5215 12.6041 13.2007 12.6041 12.8065C12.6041 12.3115 12.4666 12.2382 12.1549 12.1282L9.39575 11.1657C8.80909 10.9549 8.02075 10.5332 8.02075 9.1857C8.02075 8.03987 8.92826 7.0957 10.0374 7.0957H11.7607C12.9799 7.0957 13.9791 8.12237 13.9791 9.38737C13.9791 9.7632 13.6674 10.0749 13.2916 10.0749C12.9158 10.0749 12.6041 9.7632 12.6041 9.38737C12.6041 8.8832 12.2282 8.4707 11.7607 8.4707H10.0374C9.67993 8.4707 9.39575 8.79154 9.39575 9.1857C9.39575 9.6807 9.53324 9.75403 9.84491 9.86403L12.6041 10.8265C13.1908 11.0374 13.9791 11.459 13.9791 12.8065C13.9791 13.9615 13.0716 14.8965 11.9624 14.8965H10.2391Z" fill="#CCDCEF"/>
<path d="M10.3125 15.125V6.875C10.3125 6.49917 10.6242 6.1875 11 6.1875C11.3758 6.1875 11.6875 6.49917 11.6875 6.875V15.125C11.6875 15.5008 11.3758 15.8125 11 15.8125C10.6242 15.8125 10.3125 15.5008 10.3125 15.125Z" fill="#CCDCEF"/>
<path d="M1.14575 11.0007C1.14575 5.56482 5.56409 1.14648 10.9999 1.14648C11.3758 1.14648 11.6874 1.45815 11.6874 1.83398C11.6874 2.20982 11.3758 2.52148 10.9999 2.52148C6.32492 2.52148 2.52075 6.32565 2.52075 11.0007C2.52075 15.6756 6.32492 19.4798 10.9999 19.4798C15.6749 19.4798 19.4791 15.6756 19.4791 11.0007C19.4791 10.6248 19.7908 10.3132 20.1666 10.3132C20.5424 10.3132 20.8541 10.6248 20.8541 11.0007C20.8541 16.4365 16.4358 20.8548 10.9999 20.8548C5.56409 20.8548 1.14575 16.4365 1.14575 11.0007Z" fill="#CCDCEF"/>
<path d="M19.4792 5.50065V2.52148H16.5C16.1242 2.52148 15.8125 2.20982 15.8125 1.83398C15.8125 1.45815 16.1242 1.14648 16.5 1.14648H20.1667C20.5425 1.14648 20.8542 1.45815 20.8542 1.83398V5.50065C20.8542 5.87648 20.5425 6.18815 20.1667 6.18815C19.7908 6.18815 19.4792 5.87648 19.4792 5.50065Z" fill="#CCDCEF"/>
<path d="M15.0971 6.90281C14.8312 6.63698 14.8312 6.19698 15.0971 5.93115L19.6804 1.34781C19.9462 1.08198 20.3862 1.08198 20.6521 1.34781C20.9179 1.61365 20.9179 2.05364 20.6521 2.31948L16.0687 6.90281C15.9312 7.04031 15.7571 7.10448 15.5829 7.10448C15.4087 7.10448 15.2346 7.04031 15.0971 6.90281Z" fill="#CCDCEF"/>
</svg>
