<svg width="22" height="22" viewBox="0 0 22 22" fill="none" xmlns="http://www.w3.org/2000/svg">
<path fill-rule="evenodd" clip-rule="evenodd" d="M7.33333 20.8548C3.9875 20.8548 2.0625 18.9298 2.0625 15.584V6.41732C2.0625 3.07148 3.9875 1.14648 7.33333 1.14648H14.6667C18.0125 1.14648 19.9375 3.07148 19.9375 6.41732V15.584C19.9375 18.9298 18.0125 20.8548 14.6667 20.8548H7.33333ZM3.4375 6.41732V15.584C3.4375 18.2057 4.71167 19.4798 7.33333 19.4798H14.6667C17.2883 19.4798 18.5625 18.2057 18.5625 15.584V6.41732C18.5625 3.79565 17.2883 2.52148 14.6667 2.52148H7.33333C4.71167 2.52148 3.4375 3.79565 3.4375 6.41732Z" fill="#CCDCEF"/>
<path d="M15.1251 8.47917C13.7317 8.47917 12.6042 7.35167 12.6042 5.95833V4.125C12.6042 3.74917 12.9159 3.4375 13.2917 3.4375C13.6676 3.4375 13.9792 3.74917 13.9792 4.125V5.95833C13.9792 6.59083 14.4926 7.10417 15.1251 7.10417H16.9584C17.3342 7.10417 17.6459 7.41583 17.6459 7.79167C17.6459 8.1675 17.3342 8.47917 16.9584 8.47917H15.1251Z" fill="#CCDCEF"/>
<path d="M8.68041 16.0682L6.84708 14.2349C6.58125 13.9691 6.58125 13.529 6.84708 13.2632L8.68041 11.4298C8.94625 11.164 9.38624 11.164 9.65208 11.4298C9.91791 11.6957 9.91791 12.1357 9.65208 12.4016L8.30458 13.749L9.65208 15.0965C9.91791 15.3623 9.91791 15.8024 9.65208 16.0682C9.51458 16.2057 9.34041 16.2699 9.16625 16.2699C8.99208 16.2699 8.81791 16.2057 8.68041 16.0682Z" fill="#CCDCEF"/>
<path d="M12.3471 16.0682C12.0812 15.8024 12.0812 15.3623 12.3471 15.0965L13.6946 13.749L12.3471 12.4016C12.0812 12.1357 12.0812 11.6957 12.3471 11.4298C12.6129 11.164 13.0529 11.164 13.3187 11.4298L15.1521 13.2632C15.4179 13.529 15.4179 13.9691 15.1521 14.2349L13.3187 16.0682C13.1812 16.2057 13.0071 16.2699 12.8329 16.2699C12.6587 16.2699 12.4846 16.2057 12.3471 16.0682Z" fill="#CCDCEF"/>
</svg>
