<svg width="22" height="22" viewBox="0 0 22 22" fill="none" xmlns="http://www.w3.org/2000/svg">
<path d="M0.916748 20.8535C0.540915 20.8535 0.229248 20.5418 0.229248 20.166C0.229248 19.7902 0.540915 19.4785 0.916748 19.4785H21.0834C21.4592 19.4785 21.7709 19.7902 21.7709 20.166C21.7709 20.5418 21.4592 20.8535 21.0834 20.8535H0.916748Z" fill="#CCDCEF"/>
<path d="M17.4443 20.1762V16.0879C17.4443 15.7121 17.756 15.4004 18.1318 15.4004C18.5077 15.4004 18.8193 15.7121 18.8193 16.0879V20.1762C18.8193 20.5521 18.5168 20.8637 18.1318 20.8637C17.756 20.8637 17.4443 20.5521 17.4443 20.1762Z" fill="#CCDCEF"/>
<path fill-rule="evenodd" clip-rule="evenodd" d="M15.4456 14.0701V11.9893C15.4456 10.4952 16.6556 9.28516 18.1497 9.28516C19.6439 9.28516 20.8539 10.4952 20.8539 11.9893V14.0701C20.8539 15.5643 19.6439 16.7743 18.1497 16.7743C16.6556 16.7743 15.4456 15.5643 15.4456 14.0701ZM16.8206 11.9985V14.0793C16.8206 14.8126 17.4164 15.4085 18.1497 15.4085C18.8831 15.4085 19.4789 14.8126 19.4789 14.0793V11.9985C19.4789 11.2652 18.8831 10.6693 18.1497 10.6693C17.4164 10.6693 16.8206 11.2652 16.8206 11.9985Z" fill="#CCDCEF"/>
<path d="M12.4207 20.1673V5.52812C12.4207 4.07062 11.8066 3.44727 10.3766 3.44727H4.66577C3.2266 3.44727 2.60327 4.07062 2.60327 5.52812V20.1673C2.60327 20.5431 2.2916 20.8548 1.91577 20.8548C1.53994 20.8548 1.22827 20.5431 1.22827 20.1673V5.52812C1.22827 3.30062 2.44744 2.07227 4.66577 2.07227H10.3766C12.5858 2.07227 13.7957 3.30062 13.7957 5.52812V20.1673C13.7957 20.5431 13.4841 20.8548 13.1082 20.8548C12.7324 20.8548 12.4207 20.5431 12.4207 20.1673Z" fill="#CCDCEF"/>
<path d="M5.31641 8.25C4.94057 8.25 4.62891 7.93833 4.62891 7.5625C4.62891 7.18667 4.94057 6.875 5.31641 6.875H9.85392C10.2298 6.875 10.5414 7.18667 10.5414 7.5625C10.5414 7.93833 10.2298 8.25 9.85392 8.25H5.31641Z" fill="#CCDCEF"/>
<path d="M5.31641 11.6875C4.94057 11.6875 4.62891 11.3758 4.62891 11C4.62891 10.6242 4.94057 10.3125 5.31641 10.3125H9.85392C10.2298 10.3125 10.5414 10.6242 10.5414 11C10.5414 11.3758 10.2298 11.6875 9.85392 11.6875H5.31641Z" fill="#CCDCEF"/>
<path d="M6.875 20.166V16.7285C6.875 16.3527 7.18667 16.041 7.5625 16.041C7.93833 16.041 8.25 16.3527 8.25 16.7285V20.166C8.25 20.5418 7.93833 20.8535 7.5625 20.8535C7.18667 20.8535 6.875 20.5418 6.875 20.166Z" fill="#CCDCEF"/>
</svg>
