<svg width="22" height="22" viewBox="0 0 22 22" fill="none" xmlns="http://www.w3.org/2000/svg">
<path d="M10.3125 16.5V13.75C10.3125 13.3742 10.6242 13.0625 11 13.0625C11.3758 13.0625 11.6875 13.3742 11.6875 13.75V16.5C11.6875 16.8758 11.3758 17.1875 11 17.1875C10.6242 17.1875 10.3125 16.8758 10.3125 16.5Z" fill="white"/>
<path fill-rule="evenodd" clip-rule="evenodd" d="M5.86761 20.6804C4.19927 20.6804 2.67761 19.3971 2.40261 17.7562L1.18344 10.4504C0.981774 9.31374 1.54094 7.85624 2.44844 7.13207L8.80094 2.04457C10.0293 1.05457 11.9634 1.06374 13.2009 2.05374L19.5534 7.13207C20.4518 7.85624 21.0018 9.31374 20.8184 10.4504L19.5993 17.7471C19.3243 19.3696 17.7659 20.6804 16.1343 20.6804H5.86761ZM9.66261 3.11707L3.31011 8.21374C2.79677 8.62624 2.43011 9.57957 2.54011 10.2304L3.75927 17.5271C3.92427 18.4896 4.88677 19.3054 5.86761 19.3054H16.1343C17.1151 19.3054 18.0776 18.4896 18.2426 17.5179L19.4618 10.2212C19.5626 9.57957 19.1959 8.60791 18.6918 8.20457L12.3393 3.12624C11.9726 2.83291 11.4776 2.68624 10.9918 2.68624C10.5059 2.68624 10.0201 2.83291 9.66261 3.11707Z" fill="white"/>
</svg>
