<svg width="19" height="18" viewBox="0 0 19 18" fill="none" xmlns="http://www.w3.org/2000/svg">
<path d="M15.6504 2.61836C14.0104 0.978359 11.8204 0.0683594 9.50035 0.0683594C7.77035 0.0683594 6.10035 0.578359 4.67035 1.53836C3.23035 2.49836 2.13035 3.84836 1.47035 5.43836C0.810352 7.02836 0.640352 8.76836 0.970352 10.4684C1.30035 12.1684 2.13035 13.6984 3.35035 14.9284C4.57035 16.1484 6.11035 16.9684 7.80035 17.3084C8.36035 17.4184 8.93035 17.4784 9.50035 17.4784C10.6404 17.4784 11.7604 17.2584 12.8204 16.8184C14.4104 16.1584 15.7604 15.0484 16.7204 13.6184C17.6804 12.1784 18.1904 10.5084 18.1904 8.78836C18.1904 6.46836 17.2804 4.27836 15.6404 2.63836L15.6504 2.61836ZM15.5704 12.8284C14.7604 14.0284 13.6304 14.9584 12.2904 15.5184C10.9504 16.0784 9.49035 16.2184 8.07035 15.9384C6.65035 15.6584 5.36035 14.9684 4.33035 13.9384C3.31035 12.9184 2.61035 11.6184 2.33035 10.1984C2.05035 8.77836 2.19035 7.31836 2.75035 5.97836C3.30035 4.63836 4.23035 3.50836 5.44035 2.69836C6.64035 1.88836 8.05035 1.46836 9.50035 1.46836C11.4504 1.46836 13.2804 2.22836 14.6604 3.60836C16.0404 4.98836 16.8004 6.81836 16.8004 8.76836C16.8004 10.2184 16.3704 11.6184 15.5704 12.8284ZM13.2004 6.76836C13.2004 8.56836 11.9104 10.0684 10.2004 10.3984V10.7684C10.2004 11.1584 9.89035 11.4684 9.50035 11.4684C9.11035 11.4684 8.80035 11.1584 8.80035 10.7684V9.76836C8.80035 9.37836 9.11035 9.06836 9.50035 9.06836C10.7704 9.06836 11.8004 8.03836 11.8004 6.76836C11.8004 5.49836 10.7704 4.46836 9.50035 4.46836C8.53035 4.46836 7.65035 5.08836 7.33035 5.99836C7.23035 6.28836 6.96035 6.46836 6.67035 6.46836C6.59035 6.46836 6.51035 6.45836 6.44035 6.42836C6.08035 6.29836 5.88035 5.89836 6.01035 5.53836C6.53035 4.05836 7.93035 3.06836 9.50035 3.06836C11.5404 3.06836 13.2004 4.72836 13.2004 6.76836ZM10.2004 12.7684V13.7684C10.2004 14.1584 9.89035 14.4684 9.50035 14.4684C9.11035 14.4684 8.80035 14.1584 8.80035 13.7684V12.7684C8.80035 12.3784 9.11035 12.0684 9.50035 12.0684C9.89035 12.0684 10.2004 12.3784 10.2004 12.7684Z" fill="#4A5BF0"/>
</svg>
