<svg width="24" height="19" viewBox="0 0 24 19" fill="none" xmlns="http://www.w3.org/2000/svg">
<path d="M7.8258 18.8625C16.3164 18.8625 20.9604 11.8281 20.9604 5.7279C20.9604 5.5281 20.9604 5.3292 20.9469 5.1312C21.8503 4.47772 22.6302 3.66859 23.25 2.7417C22.4075 3.11502 21.5137 3.35984 20.5986 3.468C21.5623 2.89108 22.2835 1.98369 22.6281 0.914698C21.7219 1.45241 20.7306 1.83136 19.6968 2.0352C19.0008 1.29511 18.0803 0.80505 17.0777 0.64084C16.0751 0.47663 15.0463 0.647431 14.1506 1.12681C13.2549 1.60619 12.5421 2.36742 12.1226 3.29271C11.7031 4.218 11.6002 5.25576 11.8299 6.2454C9.99458 6.15339 8.19912 5.67645 6.56008 4.84553C4.92103 4.01461 3.47505 2.8483 2.316 1.4223C1.72568 2.43854 1.54488 3.64157 1.81041 4.78644C2.07593 5.93131 2.76782 6.93194 3.7452 7.5846C3.01057 7.56283 2.29195 7.36465 1.65 7.0068C1.65 7.0257 1.65 7.0455 1.65 7.0653C1.65029 8.13109 2.01924 9.16398 2.69425 9.98877C3.36927 10.8136 4.30881 11.3795 5.3535 11.5905C4.67388 11.7758 3.96082 11.8029 3.2691 11.6697C3.56408 12.587 4.13838 13.3891 4.91166 13.9639C5.68495 14.5387 6.61855 14.8574 7.5819 14.8755C5.94726 16.1602 3.92795 16.8576 1.8489 16.8555C1.48161 16.8548 1.11468 16.8326 0.75 16.7889C2.86107 18.1436 5.31742 18.8622 7.8258 18.8589" fill="#1DA1F2"/>
</svg>
